<svg width="64" height="72" viewBox="0 0 64 72" fill="none" xmlns="http://www.w3.org/2000/svg">
<g filter="url(#filter0_dddd_11_636)">
<path d="M20.502 2.4751C17.2476 2.4751 14.3483 3.83602 12.159 5.96615C10.0288 8.09628 8.66791 10.9956 8.66791 14.3092C8.66791 17.5635 10.0288 20.4629 12.159 22.6522L32.336 42.8293L52.5131 22.6522C54.6433 20.5221 56.0042 17.6227 56.0042 14.3092C56.0042 11.0548 54.6433 8.15545 52.5131 5.96615C50.383 3.83602 47.4837 2.4751 44.1701 2.4751C40.9157 2.4751 38.0164 3.83602 35.8271 5.96615C33.697 8.09628 32.336 10.9956 32.336 14.3092C32.336 11.0548 30.9751 8.15545 28.845 5.96615C26.7149 3.83602 23.8155 2.4751 20.502 2.4751Z" fill="url(#paint0_linear_11_636)"/>
</g>
<defs>
<filter id="filter0_dddd_11_636" x="0.778529" y="0.502753" width="63.115" height="70.9253" filterUnits="userSpaceOnUse" color-interpolation-filters="sRGB">
<feFlood flood-opacity="0" result="BackgroundImageFix"/>
<feColorMatrix in="SourceAlpha" type="matrix" values="0 0 0 0 0 0 0 0 0 0 0 0 0 0 0 0 0 0 127 0" result="hardAlpha"/>
<feOffset dy="0.986172"/>
<feGaussianBlur stdDeviation="1.47926"/>
<feColorMatrix type="matrix" values="0 0 0 0 0 0 0 0 0 0 0 0 0 0 0 0 0 0 0.1 0"/>
<feBlend mode="normal" in2="BackgroundImageFix" result="effect1_dropShadow_11_636"/>
<feColorMatrix in="SourceAlpha" type="matrix" values="0 0 0 0 0 0 0 0 0 0 0 0 0 0 0 0 0 0 127 0" result="hardAlpha"/>
<feOffset dy="4.93086"/>
<feGaussianBlur stdDeviation="2.46543"/>
<feColorMatrix type="matrix" values="0 0 0 0 0 0 0 0 0 0 0 0 0 0 0 0 0 0 0.09 0"/>
<feBlend mode="normal" in2="effect1_dropShadow_11_636" result="effect2_dropShadow_11_636"/>
<feColorMatrix in="SourceAlpha" type="matrix" values="0 0 0 0 0 0 0 0 0 0 0 0 0 0 0 0 0 0 127 0" result="hardAlpha"/>
<feOffset dy="11.8341"/>
<feGaussianBlur stdDeviation="3.4516"/>
<feColorMatrix type="matrix" values="0 0 0 0 0 0 0 0 0 0 0 0 0 0 0 0 0 0 0.05 0"/>
<feBlend mode="normal" in2="effect2_dropShadow_11_636" result="effect3_dropShadow_11_636"/>
<feColorMatrix in="SourceAlpha" type="matrix" values="0 0 0 0 0 0 0 0 0 0 0 0 0 0 0 0 0 0 127 0" result="hardAlpha"/>
<feOffset dy="20.7096"/>
<feGaussianBlur stdDeviation="3.94469"/>
<feColorMatrix type="matrix" values="0 0 0 0 0 0 0 0 0 0 0 0 0 0 0 0 0 0 0.01 0"/>
<feBlend mode="normal" in2="effect3_dropShadow_11_636" result="effect4_dropShadow_11_636"/>
<feBlend mode="normal" in="SourceGraphic" in2="effect4_dropShadow_11_636" result="shape"/>
</filter>
<linearGradient id="paint0_linear_11_636" x1="32.336" y1="2.4751" x2="32.336" y2="42.8293" gradientUnits="userSpaceOnUse">
<stop stop-color="#8954BC"/>
<stop offset="1" stop-color="#F85E9F"/>
</linearGradient>
</defs>
</svg>
