<svg width="58" height="56" viewBox="0 0 58 56" fill="none" xmlns="http://www.w3.org/2000/svg">
<g filter="url(#filter0_d_11_597)">
<rect x="14.0002" y="7.47217" width="30" height="27.7706" rx="5.91703" fill="url(#paint0_linear_11_597)" shape-rendering="crispEdges"/>
</g>
<g clip-path="url(#clip0_11_597)">
<path d="M29.0005 17.5708C28.3412 17.5833 27.7087 17.8148 27.2183 18.2229C26.7279 18.631 26.4123 19.1887 26.329 19.7942C26.2457 20.3998 26.4002 21.0129 26.7644 21.5218C27.1285 22.0307 27.6781 22.4015 28.313 22.5666V29.6626C28.313 29.8314 28.3854 29.9932 28.5144 30.1126C28.6433 30.2319 28.8182 30.299 29.0005 30.299C29.1828 30.299 29.3577 30.2319 29.4866 30.1126C29.6156 29.9932 29.688 29.8314 29.688 29.6626V22.5666C30.3228 22.4015 30.8724 22.0307 31.2366 21.5218C31.6008 21.0129 31.7553 20.3998 31.672 19.7942C31.5886 19.1887 31.273 18.631 30.7826 18.2229C30.2923 17.8148 29.6598 17.5833 29.0005 17.5708Z" fill="#FACD49"/>
<path d="M33.9498 14.8346C33.8106 14.7481 33.6419 14.7116 33.4756 14.7322C33.3093 14.7527 33.1569 14.8288 33.047 14.9462C32.9372 15.0635 32.8774 15.214 32.8791 15.3693C32.8808 15.5246 32.9437 15.6739 33.0561 15.7892C33.726 16.3269 34.2633 16.9916 34.6315 17.7382C34.9997 18.4849 35.1902 19.2961 35.1902 20.1168C35.1902 20.9376 34.9997 21.7488 34.6315 22.4954C34.2633 23.2421 33.726 23.9067 33.0561 24.4444C32.9752 24.4947 32.9068 24.5602 32.8554 24.6368C32.804 24.7134 32.7707 24.7992 32.7579 24.8886C32.745 24.9779 32.7527 25.0688 32.7807 25.1552C32.8086 25.2415 32.856 25.3214 32.9198 25.3896C32.9836 25.4577 33.0623 25.5125 33.1507 25.5504C33.239 25.5882 33.3351 25.6082 33.4325 25.6091C33.5299 25.61 33.6264 25.5918 33.7156 25.5555C33.8047 25.5193 33.8846 25.466 33.9498 25.399C34.766 24.7419 35.4205 23.9303 35.8689 23.0191C36.3174 22.1079 36.5494 21.1182 36.5494 20.1168C36.5494 19.1155 36.3174 18.1258 35.8689 17.2146C35.4205 16.3033 34.766 15.4917 33.9498 14.8346ZM22.8123 20.1168C22.812 19.2963 23.0021 18.4852 23.3698 17.7386C23.7375 16.9919 24.2742 16.3272 24.9436 15.7892C25.0559 15.6739 25.1189 15.5246 25.1205 15.3693C25.1222 15.214 25.0625 15.0635 24.9526 14.9462C24.8427 14.8288 24.6903 14.7527 24.524 14.7322C24.3578 14.7116 24.1891 14.7481 24.0498 14.8346C23.2336 15.4917 22.5792 16.3033 22.1307 17.2146C21.6823 18.1258 21.4502 19.1155 21.4502 20.1168C21.4502 21.1182 21.6823 22.1079 22.1307 23.0191C22.5792 23.9303 23.2336 24.7419 24.0498 25.399C24.1891 25.4856 24.3578 25.522 24.524 25.5015C24.6903 25.4809 24.8427 25.4048 24.9526 25.2875C25.0625 25.1701 25.1222 25.0196 25.1205 24.8644C25.1189 24.7091 25.0559 24.5597 24.9436 24.4444C24.2742 23.9065 23.7375 23.2417 23.3698 22.4951C23.0021 21.7484 22.812 20.9374 22.8123 20.1168Z" fill="#FACD49"/>
<path d="M36.3911 12.575C36.3234 12.5186 36.2444 12.4751 36.1585 12.4469C36.0726 12.4188 35.9816 12.4066 35.8906 12.411C35.7996 12.4155 35.7105 12.4365 35.6283 12.4728C35.5461 12.5091 35.4724 12.5601 35.4114 12.6227C35.3505 12.6854 35.3035 12.7586 35.2731 12.8381C35.2427 12.9176 35.2295 13.0018 35.2343 13.0861C35.2391 13.1703 35.2618 13.2528 35.301 13.3289C35.3403 13.405 35.3953 13.4732 35.463 13.5296C36.4533 14.3646 37.2444 15.3817 37.7857 16.516C38.327 17.6502 38.6066 18.8765 38.6066 20.1165C38.6066 21.3564 38.327 22.5828 37.7857 23.717C37.2444 24.8512 36.4533 25.8683 35.463 26.7033C35.3953 26.7597 35.3403 26.8279 35.301 26.904C35.2618 26.9801 35.2391 27.0626 35.2343 27.1469C35.2295 27.2311 35.2427 27.3153 35.2731 27.3948C35.3035 27.4743 35.3505 27.5475 35.4114 27.6102C35.4724 27.6729 35.5461 27.7238 35.6283 27.7601C35.7105 27.7965 35.7996 27.8174 35.8906 27.8219C35.9816 27.8263 36.0726 27.8141 36.1585 27.786C36.2444 27.7578 36.3234 27.7143 36.3911 27.6579C37.5221 26.7037 38.4255 25.5415 39.0437 24.2457C39.6618 22.9499 39.9811 21.5489 39.9811 20.1324C39.9811 18.7158 39.6618 17.3149 39.0437 16.019C38.4255 14.7232 37.5221 13.5611 36.3911 12.6068V12.575ZM19.3755 20.1165C19.38 18.8755 19.6635 17.649 20.208 16.515C20.7525 15.381 21.546 14.3643 22.538 13.5296C22.6748 13.4157 22.757 13.2561 22.7667 13.0861C22.7764 12.916 22.7127 12.7493 22.5896 12.6227C22.4665 12.4961 22.2941 12.42 22.1104 12.411C21.9267 12.4021 21.7466 12.4611 21.6099 12.575C20.4789 13.5292 19.5755 14.6914 18.9573 15.9872C18.3392 17.283 18.0199 18.684 18.0199 20.1005C18.0199 21.5171 18.3392 22.918 18.9573 24.2139C19.5755 25.5097 20.4789 26.6719 21.6099 27.6261C21.6776 27.6825 21.7567 27.726 21.8425 27.7542C21.9284 27.7823 22.0194 27.7945 22.1104 27.7901C22.2014 27.7856 22.2905 27.7646 22.3727 27.7283C22.455 27.692 22.5286 27.641 22.5896 27.5784C22.6505 27.5157 22.6975 27.4425 22.7279 27.363C22.7583 27.2835 22.7715 27.1993 22.7667 27.115C22.7619 27.0308 22.7392 26.9483 22.7 26.8722C22.6608 26.7961 22.6057 26.7279 22.538 26.6715C21.5502 25.8404 20.7592 24.8289 20.2149 23.7007C19.6706 22.5725 19.3848 21.3521 19.3755 20.1165Z" fill="#FACD49"/>
</g>
<defs>
<filter id="filter0_d_11_597" x="0.19377" y="0.568962" width="57.6128" height="55.3833" filterUnits="userSpaceOnUse" color-interpolation-filters="sRGB">
<feFlood flood-opacity="0" result="BackgroundImageFix"/>
<feColorMatrix in="SourceAlpha" type="matrix" values="0 0 0 0 0 0 0 0 0 0 0 0 0 0 0 0 0 0 127 0" result="hardAlpha"/>
<feMorphology radius="4.93086" operator="erode" in="SourceAlpha" result="effect1_dropShadow_11_597"/>
<feOffset dy="6.90321"/>
<feGaussianBlur stdDeviation="9.36864"/>
<feComposite in2="hardAlpha" operator="out"/>
<feColorMatrix type="matrix" values="0 0 0 0 0.570718 0 0 0 0 0.389126 0 0 0 0 0 0 0 0 0.11 0"/>
<feBlend mode="normal" in2="BackgroundImageFix" result="effect1_dropShadow_11_597"/>
<feBlend mode="normal" in="SourceGraphic" in2="effect1_dropShadow_11_597" result="shape"/>
</filter>
<linearGradient id="paint0_linear_11_597" x1="29.0002" y1="7.47217" x2="42.8203" y2="69.0567" gradientUnits="userSpaceOnUse">
<stop stop-color="white"/>
<stop offset="1" stop-color="white" stop-opacity="0"/>
</linearGradient>
<clipPath id="clip0_11_597">
<rect width="22" height="20.3651" fill="white" transform="translate(18.0001 11.1753)"/>
</clipPath>
</defs>
</svg>
