<svg width="24" height="34" viewBox="0 0 24 34" fill="none" xmlns="http://www.w3.org/2000/svg">
<path d="M23.1258 11.7705C23.1258 5.47861 17.9521 0.376465 11.572 0.376465C5.19185 0.376465 0.0181729 5.47861 0.0181729 11.7705C0.0181729 11.7705 -0.503847 15.7287 4.06663 22.1578C6.11986 25.0521 11.572 33.6434 11.572 33.6434C11.572 33.6434 17.024 25.0521 19.0773 22.1578C23.6478 15.7287 23.1258 11.7705 23.1258 11.7705ZM11.572 20.2817C6.92028 20.2817 3.15024 16.5638 3.15024 11.9764C3.15024 7.38906 6.92028 3.67113 11.572 3.67113C16.2236 3.67113 19.9937 7.38906 19.9937 11.9764C19.9937 16.5638 16.2236 20.2817 11.572 20.2817Z" fill="white"/>
</svg>
