<svg width="58" height="58" viewBox="0 0 58 58" fill="none" xmlns="http://www.w3.org/2000/svg">
<g filter="url(#filter0_d_11_356)">
<rect x="14.0002" y="7.01855" width="30" height="29.5852" rx="5.91703" fill="url(#paint0_linear_11_356)" shape-rendering="crispEdges"/>
</g>
<g clip-path="url(#clip0_11_356)">
<path d="M29.0005 17.7773C28.3412 17.7907 27.7087 18.0372 27.2183 18.472C26.7279 18.9068 26.4123 19.5009 26.329 20.146C26.2457 20.7911 26.4002 21.4443 26.7644 21.9865C27.1285 22.5286 27.6781 22.9237 28.313 23.0996V30.6592C28.313 30.839 28.3854 31.0115 28.5144 31.1386C28.6433 31.2658 28.8182 31.3372 29.0005 31.3372C29.1828 31.3372 29.3577 31.2658 29.4866 31.1386C29.6156 31.0115 29.688 30.839 29.688 30.6592V23.0996C30.3228 22.9237 30.8724 22.5286 31.2366 21.9865C31.6008 21.4443 31.7553 20.7911 31.672 20.146C31.5886 19.5009 31.273 18.9068 30.7826 18.472C30.2923 18.0372 29.6598 17.7907 29.0005 17.7773Z" fill="#F6CA49"/>
<path d="M33.9498 14.8612C33.8106 14.769 33.6419 14.7302 33.4756 14.7521C33.3093 14.7739 33.1569 14.855 33.047 14.9801C32.9372 15.1051 32.8774 15.2654 32.8791 15.4308C32.8808 15.5962 32.9437 15.7554 33.0561 15.8782C33.726 16.451 34.2633 17.1591 34.6315 17.9545C34.9997 18.75 35.1902 19.6142 35.1902 20.4886C35.1902 21.363 34.9997 22.2271 34.6315 23.0226C34.2633 23.818 33.726 24.5261 33.0561 25.0989C32.9752 25.1525 32.9068 25.2223 32.8554 25.3039C32.804 25.3855 32.7707 25.4769 32.7579 25.5721C32.745 25.6673 32.7527 25.7641 32.7807 25.8561C32.8086 25.9481 32.856 26.0332 32.9198 26.1058C32.9836 26.1784 33.0623 26.2368 33.1507 26.2771C33.239 26.3175 33.3351 26.3388 33.4325 26.3398C33.5299 26.3407 33.6264 26.3212 33.7156 26.2826C33.8047 26.2441 33.8846 26.1872 33.9498 26.1159C34.766 25.4158 35.4205 24.5512 35.8689 23.5805C36.3174 22.6097 36.5494 21.5553 36.5494 20.4886C36.5494 19.4218 36.3174 18.3674 35.8689 17.3967C35.4205 16.4259 34.766 15.5613 33.9498 14.8612ZM22.8123 20.4886C22.812 19.6144 23.0021 18.7503 23.3698 17.9549C23.7375 17.1595 24.2742 16.4513 24.9436 15.8782C25.0559 15.7554 25.1189 15.5962 25.1205 15.4308C25.1222 15.2654 25.0625 15.1051 24.9526 14.9801C24.8427 14.855 24.6903 14.7739 24.524 14.7521C24.3578 14.7302 24.1891 14.769 24.0498 14.8612C23.2336 15.5613 22.5792 16.4259 22.1307 17.3967C21.6823 18.3674 21.4502 19.4218 21.4502 20.4886C21.4502 21.5553 21.6823 22.6097 22.1307 23.5805C22.5792 24.5512 23.2336 25.4158 24.0498 26.1159C24.1891 26.2081 24.3578 26.2469 24.524 26.2251C24.6903 26.2032 24.8427 26.1221 24.9526 25.9971C25.0625 25.872 25.1222 25.7117 25.1205 25.5463C25.1189 25.3809 25.0559 25.2218 24.9436 25.0989C24.2742 24.5258 23.7375 23.8176 23.3698 23.0222C23.0021 22.2268 22.812 21.3627 22.8123 20.4886Z" fill="#F6CA49"/>
<path d="M36.3911 12.4549C36.3234 12.3948 36.2444 12.3485 36.1585 12.3185C36.0726 12.2885 35.9816 12.2755 35.8906 12.2802C35.7996 12.285 35.7105 12.3073 35.6283 12.346C35.5461 12.3847 35.4724 12.439 35.4114 12.5058C35.3505 12.5725 35.3035 12.6505 35.2731 12.7352C35.2427 12.8199 35.2295 12.9096 35.2343 12.9994C35.2391 13.0891 35.2618 13.177 35.301 13.2581C35.3403 13.3391 35.3953 13.4118 35.463 13.4719C36.4533 14.3614 37.2444 15.445 37.7857 16.6534C38.327 17.8617 38.6066 19.1681 38.6066 20.4891C38.6066 21.8101 38.327 23.1166 37.7857 24.3249C37.2444 25.5332 36.4533 26.6168 35.463 27.5064C35.3953 27.5665 35.3403 27.6391 35.301 27.7202C35.2618 27.8013 35.2391 27.8892 35.2343 27.9789C35.2295 28.0686 35.2427 28.1584 35.2731 28.2431C35.3035 28.3278 35.3505 28.4057 35.4114 28.4725C35.4724 28.5393 35.5461 28.5936 35.6283 28.6323C35.7105 28.671 35.7996 28.6933 35.8906 28.698C35.9816 28.7028 36.0726 28.6898 36.1585 28.6598C36.2444 28.6298 36.3234 28.5835 36.3911 28.5234C37.5221 27.5068 38.4255 26.2687 39.0437 24.8882C39.6618 23.5077 39.9811 22.0152 39.9811 20.5061C39.9811 18.997 39.6618 17.5045 39.0437 16.124C38.4255 14.7435 37.5221 13.5054 36.3911 12.4888V12.4549ZM19.3755 20.4891C19.38 19.1671 19.6635 17.8604 20.208 16.6523C20.7525 15.4442 21.546 14.3611 22.538 13.4719C22.6748 13.3505 22.757 13.1806 22.7667 12.9994C22.7764 12.8182 22.7127 12.6406 22.5896 12.5058C22.4665 12.3709 22.2941 12.2898 22.1104 12.2802C21.9267 12.2707 21.7466 12.3335 21.6099 12.4549C20.4789 13.4715 19.5755 14.7096 18.9573 16.0901C18.3392 17.4706 18.0199 18.9631 18.0199 20.4722C18.0199 21.9813 18.3392 23.4738 18.9573 24.8543C19.5755 26.2348 20.4789 27.4729 21.6099 28.4895C21.6776 28.5496 21.7567 28.5959 21.8425 28.6259C21.9284 28.6559 22.0194 28.6689 22.1104 28.6641C22.2014 28.6594 22.2905 28.6371 22.3727 28.5984C22.455 28.5597 22.5286 28.5054 22.5896 28.4386C22.6505 28.3718 22.6975 28.2939 22.7279 28.2092C22.7583 28.1245 22.7715 28.0347 22.7667 27.945C22.7619 27.8553 22.7392 27.7674 22.7 27.6863C22.6608 27.6052 22.6057 27.5326 22.538 27.4725C21.5502 26.5871 20.7592 25.5095 20.2149 24.3075C19.6706 23.1056 19.3848 21.8055 19.3755 20.4891Z" fill="#F6CA49"/>
</g>
<defs>
<filter id="filter0_d_11_356" x="0.19377" y="0.115348" width="57.6128" height="57.1978" filterUnits="userSpaceOnUse" color-interpolation-filters="sRGB">
<feFlood flood-opacity="0" result="BackgroundImageFix"/>
<feColorMatrix in="SourceAlpha" type="matrix" values="0 0 0 0 0 0 0 0 0 0 0 0 0 0 0 0 0 0 127 0" result="hardAlpha"/>
<feMorphology radius="4.93086" operator="erode" in="SourceAlpha" result="effect1_dropShadow_11_356"/>
<feOffset dy="6.90321"/>
<feGaussianBlur stdDeviation="9.36864"/>
<feComposite in2="hardAlpha" operator="out"/>
<feColorMatrix type="matrix" values="0 0 0 0 0.570718 0 0 0 0 0.389126 0 0 0 0 0 0 0 0 0.11 0"/>
<feBlend mode="normal" in2="BackgroundImageFix" result="effect1_dropShadow_11_356"/>
<feBlend mode="normal" in="SourceGraphic" in2="effect1_dropShadow_11_356" result="shape"/>
</filter>
<linearGradient id="paint0_linear_11_356" x1="29.0002" y1="7.01855" x2="44.5845" y2="72.2053" gradientUnits="userSpaceOnUse">
<stop stop-color="white"/>
<stop offset="1" stop-color="white" stop-opacity="0"/>
</linearGradient>
<clipPath id="clip0_11_356">
<rect width="22" height="21.6958" fill="white" transform="translate(18.0001 10.9629)"/>
</clipPath>
</defs>
</svg>
