<svg width="21" height="21" viewBox="0 0 21 21" fill="none" xmlns="http://www.w3.org/2000/svg">
<path d="M18.6895 6.20435V14.4224C18.6895 14.9673 18.473 15.4899 18.0877 15.8752C17.7024 16.2605 17.1799 16.477 16.635 16.477H4.30782C3.76293 16.477 3.24035 16.2605 2.85505 15.8752C2.46975 15.4899 2.2533 14.9673 2.2533 14.4224V6.20435" stroke="#170F49" stroke-width="1.38064" stroke-linecap="round" stroke-linejoin="round"/>
<path d="M18.6895 6.20443C18.6895 5.65953 18.473 5.13696 18.0877 4.75166C17.7024 4.36636 17.1799 4.1499 16.635 4.1499H4.30782C3.76293 4.1499 3.24035 4.36636 2.85505 4.75166C2.46975 5.13696 2.2533 5.65953 2.2533 6.20443L9.3825 10.6559C9.70903 10.86 10.0863 10.9682 10.4714 10.9682C10.8565 10.9682 11.2338 10.86 11.5603 10.6559L18.6895 6.20443Z" stroke="#170F49" stroke-width="1.38064" stroke-linecap="round" stroke-linejoin="round"/>
</svg>
