<svg width="21" height="21" viewBox="0 0 21 21" fill="none" xmlns="http://www.w3.org/2000/svg">
<path d="M14.7747 8.17969H6.5566C5.42192 8.17969 4.50208 9.09953 4.50208 10.2342V16.3978C4.50208 17.5325 5.42192 18.4523 6.5566 18.4523H14.7747C15.9094 18.4523 16.8292 17.5325 16.8292 16.3978V10.2342C16.8292 9.09953 15.9094 8.17969 14.7747 8.17969Z" stroke="#211F54" stroke-width="1.38064" stroke-linecap="round" stroke-linejoin="round"/>
<path d="M10.6656 2.01611C9.57584 2.01611 8.53069 2.44903 7.76009 3.21963C6.9895 3.99022 6.55658 5.03538 6.55658 6.12516V8.17969H14.7747V6.12516C14.7747 5.03538 14.3418 3.99022 13.5712 3.21963C12.8006 2.44903 11.7554 2.01611 10.6656 2.01611V2.01611Z" stroke="#211F54" stroke-width="1.38064" stroke-linecap="round" stroke-linejoin="round"/>
</svg>
