<svg width="20" height="21" viewBox="0 0 20 21" fill="none" xmlns="http://www.w3.org/2000/svg">
<path d="M14.1667 8.12354H5.83333C4.68274 8.12354 3.75 9.05628 3.75 10.2069V16.4569C3.75 17.6075 4.68274 18.5402 5.83333 18.5402H14.1667C15.3173 18.5402 16.25 17.6075 16.25 16.4569V10.2069C16.25 9.05628 15.3173 8.12354 14.1667 8.12354Z" stroke="#4A3AFF" stroke-width="1.4" stroke-linecap="round" stroke-linejoin="round"/>
<path d="M10 1.87354C8.89493 1.87354 7.83513 2.31252 7.05372 3.09392C6.27232 3.87533 5.83334 4.93513 5.83334 6.0402V8.12353H14.1667V6.0402C14.1667 4.93513 13.7277 3.87533 12.9463 3.09392C12.1649 2.31252 11.1051 1.87354 10 1.87354V1.87354Z" stroke="#4A3AFF" stroke-width="1.4" stroke-linecap="round" stroke-linejoin="round"/>
</svg>
