<svg width="19" height="18" viewBox="0 0 19 18" fill="none" xmlns="http://www.w3.org/2000/svg">
<path d="M0.878788 2.13617C0.878788 1.56694 1.07869 1.09733 1.47849 0.727352C1.87828 0.357354 2.39803 0.172363 3.03771 0.172363C3.66597 0.172363 4.17427 0.354502 4.56266 0.718814C4.96245 1.0945 5.16235 1.58402 5.16235 2.1874C5.16235 2.73385 4.96817 3.18921 4.57979 3.55352C4.18 3.92921 3.65454 4.11705 3.00344 4.11705H2.9863C2.35804 4.11705 1.84974 3.92921 1.46135 3.55352C1.07297 3.17784 0.878788 2.70538 0.878788 2.13617ZM1.10153 17.0782V5.67102H4.90534V17.0782H1.10153ZM7.01286 17.0782H10.8167V10.7086C10.8167 10.3101 10.8624 10.0028 10.9537 9.78647C11.1137 9.3994 11.3564 9.07209 11.6819 8.80457C12.0075 8.53703 12.4159 8.40327 12.907 8.40327C14.1864 8.40327 14.8261 9.26279 14.8261 10.9818V17.0782H18.6299V10.5378C18.6299 8.85295 18.2301 7.57506 17.4305 6.70415C16.6309 5.83325 15.5743 5.39779 14.2607 5.39779C12.7871 5.39779 11.6391 6.02963 10.8167 7.29329V7.32745H10.7995L10.8167 7.29329V5.67102H7.01286C7.0357 6.03531 7.04712 7.16805 7.04712 9.06926C7.04712 10.9704 7.0357 13.6401 7.01286 17.0782Z" fill="#F95F9F"/>
</svg>
