<svg width="25" height="24" viewBox="0 0 25 24" fill="none" xmlns="http://www.w3.org/2000/svg">
<path fill-rule="evenodd" clip-rule="evenodd" d="M4.23163 10.279C4.23163 5.74265 8.02236 2.07617 12.6076 2.07617C17.2058 2.07617 20.9966 5.74265 20.9966 10.279C20.9966 12.5648 20.1652 14.6869 18.7969 16.4857C17.2874 18.4698 15.4269 20.1986 13.3325 21.5554C12.8532 21.869 12.4207 21.8927 11.8946 21.5554C9.78845 20.1986 7.92789 18.4698 6.43129 16.4857C5.06197 14.6869 4.23163 12.5648 4.23163 10.279ZM9.84712 10.5344C9.84712 12.054 11.0872 13.2492 12.6076 13.2492C14.1291 13.2492 15.3811 12.054 15.3811 10.5344C15.3811 9.02652 14.1291 7.77312 12.6076 7.77312C11.0872 7.77312 9.84712 9.02652 9.84712 10.5344Z" fill="#FACD49"/>
</svg>
