<svg width="25" height="25" viewBox="0 0 25 25" fill="none" xmlns="http://www.w3.org/2000/svg">
<path fill-rule="evenodd" clip-rule="evenodd" d="M4.16278 11.0524C4.16278 6.51609 7.95351 2.84961 12.5387 2.84961C17.137 2.84961 20.9277 6.51609 20.9277 11.0524C20.9277 13.3382 20.0964 15.4604 18.7281 17.2592C17.2185 19.2432 15.358 20.972 13.2637 22.3289C12.7844 22.6425 12.3519 22.6661 11.8257 22.3289C9.7196 20.972 7.85904 19.2432 6.36244 17.2592C4.99312 15.4604 4.16278 13.3382 4.16278 11.0524ZM9.77827 11.3078C9.77827 12.8274 11.0184 14.0226 12.5387 14.0226C14.0602 14.0226 15.3122 12.8274 15.3122 11.3078C15.3122 9.79995 14.0602 8.54656 12.5387 8.54656C11.0184 8.54656 9.77827 9.79995 9.77827 11.3078Z" fill="#FACD49"/>
</svg>
