<svg width="24" height="24" viewBox="0 0 24 24" fill="none" xmlns="http://www.w3.org/2000/svg">
<path fill-rule="evenodd" clip-rule="evenodd" d="M3.52328 10.4127C3.52328 5.87644 7.31401 2.20996 11.8992 2.20996C16.4975 2.20996 20.2882 5.87644 20.2882 10.4127C20.2882 12.6986 19.4569 14.8207 18.0886 16.6195C16.579 18.6036 14.7185 20.3324 12.6242 21.6892C12.1449 22.0028 11.7124 22.0265 11.1862 21.6892C9.08011 20.3324 7.21955 18.6036 5.72294 16.6195C4.35362 14.8207 3.52328 12.6986 3.52328 10.4127ZM9.13878 10.6682C9.13878 12.1878 10.3789 13.383 11.8992 13.383C13.4207 13.383 14.6728 12.1878 14.6728 10.6682C14.6728 9.16031 13.4207 7.90691 11.8992 7.90691C10.3789 7.90691 9.13878 9.16031 9.13878 10.6682Z" fill="#FACD49"/>
</svg>
