<svg width="21" height="26" viewBox="0 0 21 26" fill="none" xmlns="http://www.w3.org/2000/svg">
<path d="M17.2372 14.4905C17.2372 19.795 11.8042 23.0629 10.6752 23.6854C10.6126 23.7199 10.5423 23.738 10.4709 23.738C10.3995 23.738 10.3292 23.7199 10.2667 23.6854C9.13676 23.0629 3.70544 19.795 3.70544 14.4905C3.70544 10.2618 6.24265 7.30176 10.4713 7.30176C14.7 7.30176 17.2372 10.2618 17.2372 14.4905Z" stroke="#170F49" stroke-width="1.38064" stroke-linecap="round" stroke-linejoin="round"/>
<path d="M7.08844 14.0675C7.08844 14.9647 7.44486 15.8252 8.07928 16.4596C8.71371 17.094 9.57417 17.4505 10.4714 17.4505C11.3686 17.4505 12.2291 17.094 12.8635 16.4596C13.4979 15.8252 13.8543 14.9647 13.8543 14.0675C13.8543 13.1703 13.4979 12.3098 12.8635 11.6754C12.2291 11.041 11.3686 10.6846 10.4714 10.6846C9.57417 10.6846 8.71371 11.041 8.07928 11.6754C7.44486 12.3098 7.08844 13.1703 7.08844 14.0675V14.0675Z" stroke="#170F49" stroke-width="1.38064" stroke-linecap="round" stroke-linejoin="round"/>
</svg>
