<svg width="17" height="16" viewBox="0 0 17 16" fill="none" xmlns="http://www.w3.org/2000/svg">
<path d="M12.3967 9.73473C12.2289 9.89744 12.1517 10.1327 12.19 10.3635L12.7662 13.5528C12.8148 13.8231 12.7008 14.0966 12.4745 14.2528C12.2528 14.4149 11.9579 14.4343 11.7161 14.3047L8.84514 12.8073C8.74531 12.7541 8.63447 12.7256 8.52103 12.7224H8.34536C8.28443 12.7315 8.22479 12.7509 8.17034 12.7807L5.29872 14.2852C5.15676 14.3566 4.996 14.3818 4.83848 14.3566C4.45474 14.284 4.19869 13.9184 4.26157 13.5327L4.83848 10.3434C4.87673 10.1107 4.79959 9.8741 4.6317 9.7088L2.29097 7.44003C2.09521 7.2501 2.02715 6.96488 2.1166 6.70754C2.20346 6.45084 2.42516 6.26351 2.69287 6.22137L5.91453 5.754C6.15956 5.72872 6.37477 5.57963 6.48497 5.35924L7.90457 2.44872C7.93828 2.3839 7.98171 2.32426 8.03422 2.2737L8.09256 2.22833C8.12302 2.19462 8.15803 2.16675 8.19692 2.14406L8.26758 2.11813L8.37777 2.07275H8.65067C8.89441 2.09803 9.10897 2.24388 9.22111 2.46169L10.6595 5.35924C10.7632 5.57121 10.9648 5.71835 11.1975 5.754L14.4192 6.22137C14.6914 6.26026 14.919 6.44825 15.0091 6.70754C15.094 6.96747 15.0207 7.25269 14.8211 7.44003L12.3967 9.73473Z" fill="#FFCD6B"/>
</svg>
