<svg width="17" height="16" viewBox="0 0 17 16" fill="none" xmlns="http://www.w3.org/2000/svg">
<path d="M12.5809 9.67374C12.4123 9.83709 12.3349 10.0733 12.3733 10.305L12.9519 13.5071C13.0007 13.7785 12.8862 14.0532 12.659 14.21C12.4364 14.3727 12.1403 14.3922 11.8975 14.2621L9.01503 12.7587C8.9148 12.7053 8.80351 12.6767 8.68962 12.6734H8.51324C8.45206 12.6825 8.39219 12.702 8.33752 12.732L5.45435 14.2425C5.31182 14.3141 5.15042 14.3395 4.99227 14.3141C4.60698 14.2412 4.3499 13.8742 4.41303 13.4869L4.99227 10.2849C5.03067 10.0512 4.95322 9.81366 4.78465 9.6477L2.43452 7.36981C2.23797 7.17911 2.16963 6.89275 2.25944 6.63437C2.34665 6.37665 2.56924 6.18856 2.83803 6.14625L6.07264 5.67701C6.31865 5.65162 6.53473 5.50193 6.64537 5.28065L8.07068 2.35844C8.10452 2.29335 8.14813 2.23348 8.20085 2.18271L8.25942 2.13716C8.29001 2.10331 8.32515 2.07533 8.3642 2.05255L8.43514 2.02651L8.54578 1.98096H8.81978C9.06449 2.00634 9.27992 2.15278 9.39251 2.37145L10.8367 5.28065C10.9408 5.49347 11.1432 5.64121 11.3769 5.67701L14.6115 6.14625C14.8848 6.1853 15.1133 6.37404 15.2037 6.63437C15.289 6.89535 15.2155 7.18172 15.015 7.36981L12.5809 9.67374Z" fill="#FFCD6B"/>
</svg>
