<svg width="18" height="16" viewBox="0 0 18 16" fill="none" xmlns="http://www.w3.org/2000/svg">
<path d="M11.8735 0.934837V0.931641H12.7058L13.0099 0.992381C13.2127 1.03181 13.3968 1.08349 13.5622 1.14743C13.7276 1.21137 13.8876 1.28596 14.0424 1.37121C14.1971 1.45645 14.3374 1.54331 14.4633 1.63175C14.5882 1.71914 14.7002 1.81185 14.7995 1.90988C14.8976 2.00898 15.0508 2.03456 15.2588 1.9866C15.4669 1.93865 15.691 1.87204 15.9311 1.7868C16.1712 1.70156 16.4086 1.60565 16.6434 1.49908C16.8782 1.39252 17.0212 1.32485 17.0724 1.29608C17.1225 1.26626 17.1492 1.25027 17.1524 1.24813L17.1556 1.24333L17.1716 1.23534L17.1876 1.22735L17.2036 1.21936L17.2196 1.21137L17.2228 1.20657L17.2276 1.20337L17.2324 1.20018L17.2356 1.19538L17.2516 1.19059L17.2676 1.18739L17.2645 1.21137L17.2596 1.23534L17.2516 1.25932L17.2436 1.28329L17.2356 1.29928L17.2276 1.31526L17.2196 1.33924C17.2143 1.35522 17.209 1.37653 17.2036 1.40318C17.1983 1.42982 17.1476 1.53637 17.0516 1.72286C16.9555 1.90935 16.8355 2.09849 16.6914 2.2903C16.5474 2.48212 16.4182 2.62703 16.3041 2.72508C16.1888 2.82418 16.1125 2.89344 16.0752 2.93287C16.0378 2.97336 15.9925 3.01065 15.9391 3.04476L15.8591 3.09751L15.8431 3.1055L15.8271 3.1135L15.8239 3.11829L15.8191 3.12149L15.8143 3.12468L15.8111 3.12948L15.7951 3.13747L15.779 3.14546L15.7759 3.15026L15.771 3.15346L15.7662 3.15665L15.763 3.16145L15.7599 3.16624L15.755 3.16944L15.7502 3.17264L15.747 3.17743H15.8271L16.2752 3.08153C16.574 3.01759 16.8595 2.94034 17.1316 2.84975L17.5638 2.7059L17.6118 2.68991L17.6358 2.68192L17.6518 2.67393L17.6678 2.66594L17.6838 2.65794L17.6998 2.64995L17.7318 2.64516L17.7638 2.64196V2.67393L17.7558 2.67712L17.7478 2.68192L17.7447 2.68672L17.7398 2.68991L17.735 2.69311L17.7318 2.6979L17.7286 2.7027L17.7238 2.7059L17.719 2.70909L17.7158 2.71389L17.7126 2.71868L17.7078 2.72188L17.6998 2.73786L17.6918 2.75385L17.687 2.75705C17.6849 2.76024 17.6171 2.85081 17.4837 3.02878C17.3503 3.2078 17.2783 3.29837 17.2676 3.30051C17.257 3.30371 17.242 3.31969 17.2228 3.34846C17.2047 3.37829 17.0916 3.49712 16.8835 3.70491C16.6754 3.91271 16.4716 4.09758 16.2721 4.25957C16.0715 4.42261 15.9701 4.62294 15.9679 4.86058C15.9647 5.09715 15.9525 5.36463 15.9311 5.66299C15.9098 5.96137 15.8698 6.28371 15.8111 6.63004C15.7524 6.97637 15.6617 7.36798 15.539 7.80488C15.4162 8.24178 15.2668 8.66803 15.0908 9.08363C14.9147 9.49922 14.7306 9.87218 14.5386 10.2025C14.3465 10.5329 14.1704 10.8126 14.0103 11.0417C13.8503 11.2708 13.6876 11.4866 13.5221 11.6891C13.3568 11.8915 13.1476 12.1196 12.8947 12.3732C12.6407 12.6257 12.502 12.7643 12.4785 12.7888C12.454 12.8122 12.3494 12.8996 12.1648 13.0509C11.9813 13.2033 11.7839 13.3557 11.5726 13.5081C11.3624 13.6594 11.1692 13.7857 10.9931 13.8869C10.8171 13.9881 10.6047 14.1037 10.3561 14.2338C10.1085 14.3648 9.84067 14.4863 9.55256 14.5982C9.26444 14.7101 8.96032 14.814 8.64019 14.9099C8.32007 15.0058 8.01061 15.0804 7.71182 15.1337C7.41305 15.187 7.07424 15.2323 6.69542 15.2695L6.12719 15.3255V15.3335H5.08677V15.3255L4.95072 15.3175C4.86002 15.3122 4.78532 15.3068 4.72663 15.3015C4.66795 15.2962 4.44652 15.2669 4.06236 15.2136C3.67821 15.1603 3.37676 15.107 3.158 15.0538C2.93926 15.0005 2.61378 14.8992 2.18161 14.7501C1.74944 14.6009 1.37969 14.4501 1.07237 14.2977C0.766114 14.1464 0.574038 14.0505 0.496135 14.01C0.419304 13.9705 0.332869 13.9215 0.236831 13.8629L0.0927731 13.775L0.0895878 13.7702L0.0847699 13.767L0.079968 13.7638L0.0767667 13.759L0.0607603 13.751L0.0447539 13.743L0.0415686 13.7382L0.0367507 13.7351L0.0319488 13.7319L0.0287475 13.7271L0.0255622 13.7223L0.0207443 13.7191H0.0127411V13.6871L0.0287475 13.6903L0.0447539 13.6951L0.116783 13.7031C0.164802 13.7084 0.295526 13.7164 0.50894 13.7271C0.722369 13.7377 0.949116 13.7377 1.18921 13.7271C1.42931 13.7164 1.67475 13.6924 1.92551 13.6551C2.17628 13.6178 2.4724 13.5539 2.81386 13.4633C3.15534 13.3727 3.46907 13.2651 3.75505 13.1404C4.03997 13.0147 4.24271 12.9209 4.3633 12.8591C4.4828 12.7984 4.66527 12.6854 4.9107 12.5202L5.27885 12.2725L5.28205 12.2677L5.28685 12.2645L5.29167 12.2613L5.29485 12.2565L5.29806 12.2517L5.30286 12.2485L5.30768 12.2453L5.31086 12.2405L5.32687 12.2357L5.34287 12.2325L5.34608 12.2165L5.35088 12.2006L5.35569 12.1974L5.35888 12.1926L5.23083 12.1846C5.14547 12.1793 5.06276 12.1739 4.98273 12.1686C4.9027 12.1633 4.77732 12.1393 4.60658 12.0967C4.43585 12.054 4.25178 11.9901 4.05436 11.9049C3.85695 11.8196 3.66487 11.7184 3.47813 11.6011C3.2914 11.4839 3.1564 11.3864 3.07317 11.3086C2.991 11.2319 2.88429 11.1232 2.75304 10.9826C2.62286 10.8408 2.50974 10.6954 2.4137 10.5462C2.31766 10.397 2.2259 10.2249 2.13841 10.0299L2.00554 9.73898L1.99754 9.715L1.98953 9.69103L1.98473 9.67504L1.98153 9.65906L2.00554 9.66226L2.02955 9.66705L2.20562 9.69103C2.32301 9.70701 2.50708 9.71234 2.75784 9.70701C3.00861 9.70169 3.18201 9.69103 3.27805 9.67504C3.37409 9.65906 3.43278 9.6484 3.45412 9.64307L3.48613 9.63508L3.52615 9.62709L3.56616 9.6191L3.56936 9.6143L3.57417 9.61111L3.57898 9.60791L3.58217 9.60311L3.55016 9.59512L3.51814 9.58713L3.48613 9.57914L3.45412 9.57115L3.42211 9.56315C3.40077 9.55783 3.36343 9.54717 3.31006 9.53119C3.25671 9.5152 3.11265 9.45659 2.87789 9.35536C2.64314 9.25413 2.45639 9.15555 2.31766 9.05965C2.17859 8.96346 2.04599 8.85828 1.9207 8.74476C1.79585 8.62967 1.65874 8.48155 1.50934 8.3004C1.35995 8.11925 1.22657 7.90878 1.10918 7.66902C0.991805 7.42925 0.90377 7.20015 0.845074 6.98169C0.786615 6.76452 0.748046 6.54249 0.729844 6.31834L0.701016 5.98267L0.717023 5.98587L0.733029 5.99067L0.749036 5.99866L0.765042 6.00665L0.781049 6.01464L0.797055 6.02263L1.04515 6.13452C1.21056 6.20912 1.41597 6.27306 1.6614 6.32634C1.90684 6.37961 2.05356 6.40893 2.10158 6.41425L2.17361 6.42224H2.31766L2.31448 6.41745L2.30966 6.41425L2.30486 6.41105L2.30166 6.40626L2.29847 6.40146L2.29365 6.39827L2.28885 6.39507L2.28565 6.39027L2.26964 6.38228L2.25364 6.37429L2.25045 6.36949L2.24563 6.3663L2.24083 6.3631L2.23763 6.3583L2.22162 6.35031L2.20562 6.34232L2.20243 6.33753C2.19923 6.33538 2.15334 6.30129 2.06476 6.23523C1.97726 6.16809 1.88549 6.08125 1.78945 5.97468C1.69341 5.86811 1.59738 5.75623 1.50134 5.63901C1.40512 5.52153 1.31942 5.39584 1.24523 5.26338C1.17055 5.13018 1.09157 4.96073 1.00834 4.75508C0.926179 4.55048 0.863754 4.34429 0.821065 4.13649C0.778391 3.92869 0.754382 3.72357 0.749036 3.52109C0.743706 3.31862 0.749036 3.14546 0.765042 3.00161C0.781049 2.85775 0.813061 2.69523 0.861081 2.51408C0.9091 2.33293 0.978472 2.14112 1.06916 1.93865L1.20522 1.63495L1.21322 1.61097L1.22122 1.587L1.22604 1.5838L1.22923 1.579L1.23243 1.57421L1.23723 1.57101L1.24205 1.57421L1.24523 1.579L1.24844 1.5838L1.25324 1.587L1.25806 1.59019L1.26124 1.59499L1.26444 1.59978L1.26924 1.60298L1.27725 1.61896L1.28525 1.63495L1.29007 1.63815L1.29325 1.64294L1.50934 1.88271C1.6534 2.04255 1.82414 2.22104 2.02154 2.41818C2.21897 2.61531 2.32834 2.71761 2.34968 2.72508C2.37103 2.7336 2.3977 2.7581 2.42971 2.7986C2.46172 2.83804 2.56844 2.93235 2.74984 3.08153C2.93125 3.23071 3.16868 3.40388 3.46212 3.60102C3.75558 3.79815 4.08104 3.99263 4.43851 4.18444C4.796 4.37625 5.18015 4.54941 5.59097 4.70393C6.00181 4.85845 6.28992 4.95968 6.45532 5.00763C6.62073 5.05559 6.9035 5.11685 7.30366 5.19145C7.70382 5.26605 8.00528 5.314 8.20802 5.33531C8.41077 5.35662 8.5495 5.36888 8.62419 5.37207L8.73623 5.37527L8.73305 5.35129L8.72823 5.32732L8.69622 5.12752C8.67488 4.99432 8.6642 4.80783 8.6642 4.56807C8.6642 4.3283 8.68288 4.10719 8.72023 3.90472C8.75758 3.70224 8.81361 3.49712 8.88829 3.28932C8.96299 3.08153 9.0361 2.91475 9.10758 2.78901C9.18015 2.66434 9.27512 2.52208 9.39249 2.36223C9.50988 2.20239 9.66195 2.03723 9.84868 1.86672C10.0354 1.69622 10.2488 1.54437 10.4889 1.41117C10.729 1.27797 10.9505 1.17673 11.1532 1.10747C11.356 1.03821 11.5267 0.992908 11.6654 0.971601C11.8041 0.950294 11.8735 0.938034 11.8735 0.934837Z" fill="#F95F9F"/>
</svg>
