<svg width="323" height="282" viewBox="0 0 323 282" fill="none" xmlns="http://www.w3.org/2000/svg">
<path d="M56.8893 268.742C56.6808 269.186 56.2117 269.433 55.7427 269.433C55.5602 269.433 55.3778 269.408 55.2215 269.334C52.9021 268.323 50.6349 267.262 48.4198 266.152C47.7943 265.831 47.5598 265.115 47.8986 264.523C48.2374 263.931 48.9931 263.709 49.6185 264.03C51.7555 265.115 53.9966 266.176 56.2639 267.163C56.8893 267.434 57.176 268.15 56.8893 268.742ZM52.4591 82.2238C52.9021 81.7057 52.7979 80.9409 52.2506 80.5461C51.7033 80.1267 50.8955 80.2254 50.4785 80.7435C48.8889 82.6185 47.3513 84.4936 45.8659 86.3687C45.4489 86.8868 45.5532 87.6516 46.1004 88.0463C46.335 88.219 46.5956 88.293 46.8562 88.293C47.2471 88.293 47.6119 88.1203 47.8725 87.8243C49.3579 85.9739 50.8955 84.0988 52.4591 82.2485V82.2238ZM43.2078 260.502C41.0969 259.243 39.0381 257.911 37.0836 256.554C36.5103 256.16 35.7285 256.283 35.3116 256.801C34.8946 257.344 35.0249 258.084 35.5722 258.479C37.5788 259.885 39.6896 261.242 41.8526 262.525C42.0611 262.648 42.2957 262.698 42.5302 262.698C42.9472 262.698 43.3641 262.5 43.5987 262.13C43.9635 261.563 43.8071 260.822 43.2078 260.477V260.502ZM34.5298 103.466C33.9564 103.096 33.1486 103.269 32.7837 103.812C31.3765 105.835 30.0214 107.833 28.7184 109.831C28.3535 110.399 28.5359 111.139 29.1353 111.484C29.3438 111.608 29.5783 111.657 29.8129 111.657C30.2298 111.657 30.6468 111.46 30.8813 111.09C32.1843 109.116 33.5134 107.118 34.8946 105.119C35.2855 104.576 35.1291 103.812 34.5298 103.466ZM25.956 247.376C25.4608 246.908 24.653 246.883 24.1578 247.376C23.6627 247.845 23.6366 248.61 24.1578 249.079C25.9039 250.781 27.7541 252.434 29.6826 254.013C29.9171 254.21 30.2298 254.309 30.5165 254.309C30.8813 254.309 31.2201 254.161 31.4807 253.89C31.9498 253.396 31.8716 252.631 31.3504 252.187C29.4741 250.658 27.676 249.029 25.982 247.376H25.956ZM70.0757 59.0817C68.3557 60.8581 66.6879 62.6098 65.02 64.3615C64.551 64.8549 64.6031 65.6197 65.1243 66.0638C65.3588 66.2612 65.6715 66.3599 65.9582 66.3599C66.297 66.3599 66.6618 66.2118 66.8964 65.9651C68.5382 64.2134 70.206 62.4618 71.8999 60.7101C72.369 60.2166 72.3429 59.4518 71.8217 59.0077C71.3005 58.5636 70.4927 58.5883 70.0236 59.0817H70.0757ZM84.4869 275.848C82.0373 275.354 79.6137 274.787 77.2422 274.195C76.5647 273.997 75.861 274.417 75.6786 275.033C75.4962 275.675 75.9132 276.341 76.5907 276.489C78.9882 277.106 81.4639 277.649 83.9397 278.167C84.0178 278.167 84.1221 278.191 84.2002 278.191C84.7736 278.191 85.3208 277.797 85.4511 277.254C85.6075 276.612 85.1645 275.971 84.4869 275.823V275.848ZM61.8668 69.6166C61.3456 69.1971 60.5377 69.2465 60.0686 69.7399C58.4268 71.5656 56.8111 73.3913 55.2215 75.1924C54.7784 75.7105 54.8566 76.4506 55.3778 76.8947C55.6124 77.0674 55.899 77.1661 56.1857 77.1661C56.5505 77.1661 56.9154 77.0181 57.176 76.722C58.7396 74.921 60.3553 73.1199 61.9971 71.2942C62.4401 70.8008 62.388 70.036 61.8668 69.5919V69.6166ZM92.8522 38.7029C92.3571 38.2341 91.5492 38.2094 91.0541 38.6782C89.2299 40.3559 87.4578 42.0089 85.6857 43.6619C85.1905 44.1307 85.1905 44.8955 85.6857 45.3642C85.9202 45.611 86.259 45.7096 86.5717 45.7096C86.8844 45.7096 87.2232 45.5863 87.4578 45.3642C89.2038 43.7112 90.9759 42.0582 92.8001 40.4052C93.2952 39.9365 93.3213 39.1716 92.8261 38.7029H92.8522ZM70.1278 272.221C67.7303 271.481 65.3849 270.691 63.1177 269.877C62.4662 269.63 61.7365 269.951 61.4759 270.568C61.2153 271.185 61.5541 271.875 62.2056 272.122C64.4988 272.961 66.8964 273.775 69.346 274.515C69.4763 274.565 69.6066 274.565 69.7369 274.565C70.2842 274.565 70.7793 274.244 70.9357 273.726C71.1442 273.084 70.7793 272.418 70.1278 272.221ZM77.0598 55.529C78.7537 53.8266 80.4737 52.1243 82.2458 50.4219C82.7409 49.9532 82.7148 49.1884 82.2458 48.7196C81.7506 48.2508 80.9427 48.2755 80.4476 48.7196C78.6755 50.4466 76.9295 52.149 75.2356 53.8513C74.7665 54.3447 74.7665 55.0849 75.2877 55.5537C75.5222 55.7757 75.835 55.8744 76.1477 55.8744C76.4865 55.8744 76.8253 55.751 77.0598 55.5043V55.529ZM1.2771 191.372C1.98072 191.372 2.52798 190.853 2.55404 190.187C2.55404 187.868 2.68434 185.524 2.86676 183.181C2.91888 182.514 2.39768 181.947 1.69406 181.898C1.0165 181.873 0.391054 182.342 0.338934 183.008C0.130453 185.401 0.0262127 187.819 0.000152588 190.187C0.000152588 190.853 0.547414 191.396 1.25104 191.396L1.2771 191.372ZM3.54432 204.151C3.17948 201.882 2.91888 199.538 2.76252 197.194C2.7104 196.528 2.11102 196.034 1.4074 196.084C0.703775 196.133 0.182573 196.701 0.234693 197.367C0.391054 199.76 0.677714 202.178 1.04256 204.522C1.1468 205.114 1.668 205.558 2.29344 205.558C2.34556 205.558 2.42374 205.558 2.47586 205.558C3.17948 205.459 3.64856 204.842 3.54432 204.201V204.151ZM2.26738 177.21C2.26738 177.21 2.39768 177.21 2.4498 177.21C3.07524 177.21 3.6225 176.766 3.70068 176.174C4.03946 173.904 4.45643 171.56 4.95157 169.241C5.08187 168.6 4.63885 167.958 3.96128 167.835C3.28372 167.711 2.60616 168.131 2.47586 168.772C1.98072 171.141 1.5377 173.509 1.19892 175.828C1.09468 176.494 1.58982 177.087 2.26738 177.185V177.21ZM5.08187 163.27C5.08187 163.27 5.29035 163.32 5.39459 163.32C5.96791 163.32 6.46305 162.95 6.61941 162.432C7.21879 160.211 7.92242 157.917 8.67816 155.672C8.88664 155.03 8.5218 154.364 7.84424 154.167C7.16667 153.969 6.46305 154.315 6.25457 154.956C5.49883 157.251 4.79521 159.57 4.16976 161.839C3.98734 162.481 4.40431 163.147 5.08187 163.295V163.27ZM38.0479 99.7654C38.4388 99.7654 38.8557 99.5927 39.0903 99.2473C40.4975 97.3476 41.9308 95.4232 43.4162 93.4741C43.8332 92.9313 43.7029 92.1912 43.1296 91.7964C42.5563 91.4017 41.7745 91.525 41.3575 92.0678C39.846 94.0169 38.4127 95.9413 37.0055 97.8904C36.6146 98.4331 36.7449 99.1733 37.3182 99.568C37.5267 99.7161 37.7873 99.7901 38.0479 99.7901V99.7654ZM16.6525 236.545C16.2616 236.003 15.4798 235.855 14.8805 236.225C14.3071 236.595 14.1508 237.335 14.5417 237.902C15.9489 239.876 17.4865 241.825 19.0761 243.676C19.3367 243.972 19.7016 244.12 20.0664 244.12C20.3531 244.12 20.6397 244.021 20.8743 243.848C21.4215 243.429 21.4997 242.664 21.0567 242.171C19.4931 240.37 18.0077 238.47 16.6525 236.57V236.545ZM15.0629 136.526C15.2453 136.6 15.4017 136.625 15.5841 136.625C16.0792 136.625 16.5222 136.354 16.7307 135.934C17.7471 133.837 18.8155 131.715 19.9361 129.569C20.2488 128.977 19.9882 128.261 19.3628 127.965C18.7373 127.669 17.9816 127.916 17.6689 128.508C16.5222 130.679 15.4277 132.826 14.4114 134.947C14.1247 135.539 14.4114 136.255 15.0368 136.526H15.0629ZM4.95157 211.035C4.79521 210.393 4.11764 209.974 3.44008 210.147C2.76252 210.295 2.34556 210.936 2.50192 211.578C3.07524 213.922 3.77886 216.265 4.56067 218.51C4.74309 219.004 5.23823 219.325 5.75943 219.325C5.88973 219.325 6.02003 219.325 6.15033 219.275C6.80183 219.078 7.16667 218.387 6.95819 217.77C6.20245 215.574 5.52489 213.305 4.95157 211.035ZM13.0823 140.844C12.4308 140.597 11.7011 140.893 11.4405 141.485C10.4763 143.73 9.5642 145.951 8.70422 148.147C8.46968 148.763 8.80846 149.454 9.45996 149.676C9.59026 149.726 9.74662 149.75 9.90298 149.75C10.4242 149.75 10.9193 149.454 11.1017 148.961C11.9357 146.79 12.8217 144.594 13.7859 142.373C14.0465 141.757 13.7338 141.066 13.1084 140.819L13.0823 140.844ZM9.5642 224.308C9.27754 223.691 8.54786 223.42 7.89636 223.691C7.24485 223.963 6.95819 224.654 7.24485 225.27C8.2612 227.466 9.38178 229.637 10.6066 231.759C10.8411 232.154 11.2581 232.376 11.7272 232.376C11.9357 232.376 12.1441 232.327 12.3266 232.228C12.952 231.907 13.1605 231.192 12.8217 230.6C11.649 228.552 10.5545 226.455 9.5642 224.333V224.308ZM26.6075 115.506C26.0081 115.161 25.2263 115.358 24.8615 115.95C23.5845 118.047 22.3597 120.12 21.1609 122.167C20.8222 122.759 21.0567 123.475 21.6821 123.796C21.8646 123.894 22.073 123.944 22.2815 123.944C22.7245 123.944 23.1676 123.722 23.4021 123.327C24.5748 121.279 25.7996 119.231 27.0505 117.159C27.4154 116.592 27.2069 115.851 26.5814 115.531L26.6075 115.506ZM270.843 239.284C268.653 240.444 266.464 241.554 264.275 242.664C263.65 242.985 263.415 243.7 263.754 244.292C263.989 244.687 264.432 244.934 264.875 244.934C265.083 244.934 265.292 244.885 265.474 244.786C267.663 243.676 269.878 242.541 272.093 241.381C272.693 241.06 272.927 240.32 272.589 239.753C272.25 239.185 271.468 238.963 270.869 239.284H270.843ZM244.157 252.089C241.864 253.076 239.596 254.038 237.329 254.975C236.678 255.247 236.391 255.937 236.678 256.554C236.886 256.998 237.355 257.27 237.85 257.27C238.007 257.27 238.189 257.245 238.346 257.171C240.639 256.234 242.932 255.247 245.225 254.26C245.851 253.988 246.138 253.273 245.851 252.681C245.564 252.089 244.809 251.817 244.183 252.089H244.157ZM257.63 245.921C255.389 247.006 253.148 248.042 250.933 249.054C250.307 249.35 250.047 250.066 250.333 250.658C250.542 251.077 251.011 251.324 251.48 251.324C251.662 251.324 251.845 251.274 252.027 251.2C254.268 250.164 256.509 249.128 258.777 248.042C259.402 247.746 259.637 247.031 259.324 246.439C259.011 245.847 258.255 245.6 257.63 245.921ZM202.331 267.36C199.933 268.076 197.536 268.742 195.164 269.384C194.486 269.556 194.096 270.222 194.304 270.864C194.46 271.382 194.982 271.727 195.529 271.727C195.633 271.727 195.763 271.727 195.868 271.678C198.265 271.037 200.663 270.346 203.086 269.63C203.764 269.433 204.129 268.767 203.92 268.125C203.712 267.484 203.008 267.138 202.331 267.336V267.36ZM230.449 257.738C228.13 258.651 225.811 259.515 223.491 260.354C222.84 260.6 222.501 261.291 222.762 261.908C222.944 262.377 223.439 262.673 223.934 262.673C224.091 262.673 224.247 262.648 224.403 262.599C226.723 261.76 229.068 260.872 231.388 259.959C232.039 259.712 232.352 258.997 232.065 258.405C231.805 257.788 231.049 257.492 230.423 257.763L230.449 257.738ZM216.507 262.846C214.136 263.66 211.79 264.425 209.445 265.189C208.793 265.411 208.429 266.078 208.637 266.719C208.82 267.212 209.315 267.533 209.836 267.533C209.966 267.533 210.096 267.533 210.253 267.459C212.624 266.694 214.996 265.93 217.367 265.115C218.019 264.893 218.358 264.202 218.123 263.586C217.888 262.969 217.159 262.648 216.507 262.87V262.846ZM283.794 232.179C281.631 233.412 279.494 234.596 277.358 235.781C276.758 236.101 276.55 236.842 276.888 237.409C277.123 237.804 277.54 238.001 277.983 238.001C278.191 238.001 278.426 237.952 278.608 237.828C280.771 236.644 282.934 235.435 285.097 234.202C285.697 233.856 285.879 233.116 285.54 232.549C285.176 231.981 284.394 231.809 283.794 232.129V232.179ZM308.864 216.709C306.805 218.066 304.747 219.399 302.688 220.731C302.115 221.101 301.958 221.841 302.349 222.409C302.584 222.754 303.001 222.927 303.392 222.927C303.626 222.927 303.887 222.853 304.095 222.729C306.154 221.397 308.239 220.065 310.297 218.683C310.871 218.313 311.001 217.548 310.61 217.005C310.219 216.463 309.411 216.339 308.838 216.709H308.864ZM322.754 208.642C322.337 208.124 321.529 208 320.982 208.395C318.975 209.826 316.969 211.208 314.962 212.589C314.389 212.984 314.259 213.724 314.676 214.267C314.936 214.588 315.301 214.76 315.692 214.76C315.953 214.76 316.213 214.686 316.448 214.538C318.454 213.157 320.487 211.75 322.494 210.319C323.041 209.925 323.171 209.16 322.754 208.642ZM296.46 224.654C294.349 225.961 292.264 227.22 290.153 228.478C289.554 228.823 289.371 229.563 289.762 230.131C289.997 230.501 290.414 230.698 290.831 230.698C291.065 230.698 291.3 230.649 291.508 230.526C293.619 229.267 295.73 227.984 297.841 226.677C298.44 226.307 298.596 225.567 298.206 225.024C297.815 224.481 297.033 224.308 296.46 224.678V224.654ZM114.065 279.376C111.563 279.277 109.088 279.129 106.612 278.932C105.882 278.833 105.309 279.376 105.257 280.017C105.205 280.683 105.726 281.251 106.403 281.3C108.879 281.497 111.407 281.645 113.935 281.744H113.987C114.664 281.744 115.212 281.251 115.264 280.609C115.29 279.943 114.743 279.376 114.065 279.351V279.376ZM126.209 11.9094C126.756 11.4899 126.808 10.7251 126.365 10.207C125.922 9.71358 125.115 9.63956 124.567 10.059C122.639 11.6133 120.736 13.143 118.86 14.6726C118.339 15.1167 118.261 15.8568 118.73 16.375C118.99 16.6463 119.329 16.7944 119.694 16.7944C119.981 16.7944 120.293 16.6957 120.528 16.4983C122.404 14.9687 124.307 13.439 126.235 11.8847L126.209 11.9094ZM113.179 19.3602C111.277 20.9392 109.4 22.5182 107.576 24.0972C107.055 24.5413 107.003 25.3061 107.472 25.7996C107.732 26.0709 108.071 26.1943 108.41 26.1943C108.723 26.1943 109.009 26.0956 109.27 25.8982C111.094 24.3192 112.971 22.7649 114.873 21.1859C115.394 20.7418 115.446 20.0017 114.977 19.4836C114.508 18.9902 113.7 18.9408 113.179 19.3849V19.3602ZM187.945 271.234C185.522 271.826 183.098 272.394 180.701 272.936C180.023 273.084 179.606 273.726 179.763 274.367C179.893 274.91 180.414 275.305 180.987 275.305C181.092 275.305 181.17 275.305 181.274 275.28C183.698 274.737 186.147 274.17 188.597 273.578C189.274 273.405 189.691 272.764 189.509 272.122C189.327 271.481 188.623 271.086 187.971 271.259L187.945 271.234ZM128.971 279.474C127.043 279.524 125.141 279.548 123.264 279.548H121.518C120.867 279.45 120.241 280.066 120.241 280.733C120.241 281.399 120.789 281.941 121.492 281.941H123.264C125.167 281.941 127.095 281.941 129.05 281.867C129.753 281.867 130.301 281.3 130.274 280.634C130.274 279.968 129.701 279.474 128.971 279.474ZM99.2109 278.191C96.7091 277.895 94.2594 277.55 91.8359 277.18C91.1583 277.081 90.4807 277.501 90.3765 278.167C90.2462 278.833 90.7153 279.45 91.4189 279.548C93.8685 279.943 96.3703 280.288 98.8981 280.585C98.9502 280.585 99.0024 280.585 99.0545 280.585C99.6799 280.585 100.227 280.14 100.305 279.524C100.384 278.858 99.8884 278.265 99.2109 278.191ZM102.025 28.8835C100.175 30.5119 98.3248 32.1402 96.5267 33.7439C96.0315 34.2126 96.0055 34.9528 96.4745 35.4462C96.7351 35.6929 97.0479 35.8163 97.3867 35.8163C97.6994 35.8163 98.0121 35.7176 98.2466 35.4955C100.045 33.8919 101.869 32.2635 103.719 30.6599C104.24 30.2158 104.267 29.451 103.797 28.9575C103.328 28.4641 102.52 28.4394 101.999 28.8835H102.025ZM158.706 276.933C156.23 277.279 153.755 277.599 151.305 277.895C150.601 277.969 150.106 278.561 150.21 279.228C150.289 279.844 150.836 280.288 151.461 280.288C151.513 280.288 151.566 280.288 151.618 280.288C154.093 280.017 156.569 279.696 159.097 279.326C159.801 279.228 160.27 278.611 160.165 277.969C160.061 277.303 159.436 276.859 158.732 276.958L158.706 276.933ZM173.404 274.441C170.954 274.91 168.505 275.379 166.055 275.774C165.377 275.897 164.908 276.514 165.039 277.155C165.143 277.747 165.69 278.142 166.289 278.142C166.368 278.142 166.446 278.142 166.524 278.142C168.974 277.723 171.449 277.279 173.925 276.785C174.603 276.662 175.046 276.02 174.915 275.354C174.785 274.713 174.108 274.293 173.43 274.417L173.404 274.441ZM137.936 1.1525C137.493 0.634391 136.685 0.560367 136.164 0.979787C134.21 2.48476 132.255 3.98974 130.353 5.49472C129.805 5.91414 129.727 6.67896 130.196 7.19706C130.457 7.49312 130.822 7.64116 131.187 7.64116C131.473 7.64116 131.76 7.54247 131.994 7.36977C133.897 5.86479 135.825 4.38449 137.78 2.87951C138.327 2.46009 138.405 1.69527 137.962 1.20183L137.936 1.1525ZM143.852 278.635C141.35 278.858 138.874 279.03 136.399 279.154C135.695 279.203 135.174 279.77 135.2 280.412C135.252 281.053 135.799 281.547 136.451 281.547H136.529C139.005 281.399 141.532 281.226 144.06 281.004C144.764 280.955 145.259 280.362 145.207 279.696C145.155 279.03 144.529 278.586 143.826 278.611L143.852 278.635Z" fill="white"/>
</svg>
