<svg width="36" height="32" viewBox="0 0 36 32" fill="none" xmlns="http://www.w3.org/2000/svg">
<path d="M27.9372 8.33305C31.6547 5.40015 35.6882 1.16578 35.0377 0.377569C34.3871 -0.410647 29.3127 2.52225 25.5952 5.47347C25.2606 5.74843 24.926 6.00506 24.61 6.26169C23.9595 6.15171 22.6026 5.93174 20.8739 5.65678C20.8925 5.65678 20.9297 5.65678 20.9483 5.65678L21.952 4.86857C22.0821 4.77691 22.0821 4.57528 21.952 4.44696L21.1713 3.49377C21.0598 3.34712 20.8739 3.31047 20.7438 3.42045L19.7401 4.20866C19.7401 4.20866 19.6657 4.31865 19.6471 4.39197L18.4761 5.3085C17.0077 5.0702 15.4091 4.81357 13.8292 4.55694L14.8143 3.78706C14.9444 3.69541 14.9444 3.49377 14.8143 3.36546L14.0337 2.41226C13.9221 2.26562 13.7363 2.22896 13.6061 2.33894L12.6024 3.12716C12.6024 3.12716 12.5281 3.23714 12.5095 3.31046L11.3756 4.19033C7.3607 3.54876 3.99634 3.03551 3.88481 3.07217C3.606 3.16382 2.17475 4.37364 2.17475 4.37364C1.82158 4.6486 1.57995 4.90523 1.59854 4.94189C1.63571 4.97855 2.04464 4.70359 2.37921 4.44696L9.75851 7.1049C9.49828 7.3432 9.34957 7.56316 9.40534 7.63649C9.47969 7.72814 9.81427 7.56316 10.1488 7.2882L10.186 7.25155L11.6359 7.78313C11.3942 8.0031 11.2455 8.22307 11.3013 8.29639C11.3756 8.38804 11.7102 8.22307 12.0448 7.94811L13.3645 8.40637L14.1638 8.97462C13.8664 9.23125 13.6619 9.48788 13.7177 9.5612C13.792 9.65285 14.1266 9.48788 14.4612 9.21292H14.4798L16.0597 10.3128C15.7623 10.5694 15.5578 10.826 15.6322 10.8993C15.7065 10.991 16.0411 10.826 16.3757 10.5511L17.8255 11.5776C15.3534 13.5756 14.3868 14.3821 12.5466 15.8486C10.6879 17.315 8.99641 18.8548 7.63952 20.2296C5.44618 19.8997 1.11525 19.1848 1.11525 19.1848L0 19.918L4.70267 23.5108C4.44244 23.8591 4.23797 24.134 4.12645 24.354C3.40153 25.0139 2.97402 25.4538 3.02978 25.5272C3.08554 25.6005 3.606 25.3072 4.38668 24.7573C4.62832 24.6839 4.96289 24.519 5.39041 24.3173L7.93692 29.6882L8.92206 28.79C8.92206 28.79 9.18229 24.1707 9.33099 22.0627C10.9295 21.0728 12.7511 19.8997 14.647 18.5982C16.9519 16.7835 17.9928 16.0136 20.1304 14.3638L20.8181 15.9769C20.465 16.2702 20.2419 16.5452 20.3163 16.6368C20.372 16.7101 20.6694 16.5818 21.004 16.3435L21.7661 18.1216H21.7475C21.3944 18.4149 21.1713 18.7082 21.2457 18.7815C21.3014 18.8548 21.6174 18.7265 21.9334 18.4882L22.3237 19.3681L22.5096 20.7429C22.1565 21.0178 21.9334 21.3111 22.0077 21.4028C22.0635 21.4761 22.3052 21.3844 22.584 21.1828L22.7884 22.7042H22.7513C22.3981 22.9975 22.175 23.2908 22.2494 23.3825C22.3052 23.4558 22.5654 23.3458 22.8442 23.1442L23.8479 30.8247C23.5319 31.0997 23.1602 31.4296 23.1788 31.4663C23.216 31.5029 23.5133 31.3196 23.8665 31.0447C23.8665 31.0447 25.3907 29.9265 25.5208 29.6882C25.5766 29.5965 25.7996 26.242 26.0599 22.246L27.1937 21.3661C27.1937 21.3661 27.3424 21.3661 27.3982 21.3294L28.4019 20.5412C28.532 20.4496 28.532 20.2479 28.4019 20.1196L27.6212 19.1664C27.5097 19.0198 27.3238 18.9831 27.1937 19.0931L26.2086 19.863C26.3015 18.2866 26.3944 16.7101 26.4874 15.2254L27.6584 14.3088C27.6584 14.3088 27.8071 14.3088 27.8629 14.2722L28.8666 13.484C28.9967 13.3923 28.9967 13.1907 28.8666 13.0623L28.0859 12.1092C27.9744 11.9625 27.7885 11.9258 27.6584 12.0358L26.6547 12.824C26.6547 12.824 26.6547 12.8607 26.6175 12.8974C26.729 11.1926 26.8034 9.85449 26.8405 9.19459C27.1565 8.93796 27.4911 8.68133 27.8443 8.40637L27.9372 8.33305Z" fill="white"/>
</svg>
