<svg width="231" height="210" viewBox="0 0 231 210" fill="none" xmlns="http://www.w3.org/2000/svg">
<path d="M40.577 199.908C40.4283 200.238 40.0937 200.422 39.7591 200.422C39.629 200.422 39.4989 200.403 39.3874 200.348C37.7331 199.597 36.116 198.808 34.536 197.984C34.0899 197.745 33.9226 197.214 34.1642 196.774C34.4059 196.334 34.9449 196.169 35.391 196.407C36.9152 197.214 38.5138 198.002 40.1309 198.735C40.577 198.937 40.7814 199.468 40.577 199.908ZM37.4171 61.3289C37.7331 60.944 37.6587 60.3757 37.2684 60.0824C36.878 59.7708 36.3018 59.8441 36.0044 60.2291C34.8706 61.6222 33.7739 63.0153 32.7144 64.4084C32.417 64.7934 32.4914 65.3616 32.8817 65.6549C33.049 65.7832 33.2349 65.8382 33.4207 65.8382C33.6996 65.8382 33.9598 65.7099 34.1457 65.4899C35.2052 64.1152 36.3018 62.722 37.4171 61.3472V61.3289ZM30.8185 193.786C29.3129 192.851 27.8445 191.861 26.4504 190.853C26.0415 190.56 25.4838 190.651 25.1864 191.036C24.889 191.44 24.982 191.989 25.3723 192.283C26.8035 193.328 28.3091 194.336 29.8519 195.289C30.0006 195.381 30.1679 195.417 30.3352 195.417C30.6326 195.417 30.93 195.271 31.0973 194.996C31.3575 194.574 31.246 194.024 30.8185 193.768V193.786ZM24.6288 77.1116C24.2199 76.8366 23.6437 76.9649 23.3834 77.3682C22.3797 78.8713 21.4131 80.3561 20.4838 81.8408C20.2235 82.2624 20.3536 82.8124 20.7812 83.069C20.9299 83.1607 21.0971 83.1973 21.2644 83.1973C21.5618 83.1973 21.8592 83.0507 22.0265 82.7757C22.9559 81.3093 23.9039 79.8245 24.889 78.3397C25.1678 77.9364 25.0563 77.3682 24.6288 77.1116ZM18.5135 184.034C18.1603 183.686 17.5841 183.667 17.2309 184.034C16.8778 184.382 16.8592 184.951 17.2309 185.299C18.4763 186.564 19.796 187.792 21.1715 188.965C21.3388 189.112 21.5618 189.185 21.7663 189.185C22.0265 189.185 22.2682 189.075 22.454 188.873C22.7886 188.507 22.7329 187.938 22.3611 187.608C21.0228 186.472 19.7402 185.262 18.5321 184.034H18.5135ZM49.9823 44.1348C48.7555 45.4546 47.5659 46.7561 46.3763 48.0575C46.0417 48.4242 46.0789 48.9924 46.4507 49.3224C46.618 49.469 46.841 49.5423 47.0455 49.5423C47.2871 49.5423 47.5473 49.4323 47.7146 49.249C48.8857 47.9476 50.0753 46.6461 51.2835 45.3446C51.618 44.978 51.5994 44.4098 51.2277 44.0798C50.8559 43.7498 50.2797 43.7682 49.9451 44.1348H49.9823ZM60.2613 205.188C58.514 204.821 56.7854 204.399 55.0939 203.959C54.6106 203.813 54.1088 204.124 53.9787 204.583C53.8486 205.059 54.146 205.554 54.6292 205.664C56.3393 206.122 58.1051 206.526 59.8709 206.911C59.9267 206.911 60.0011 206.929 60.0568 206.929C60.4657 206.929 60.8561 206.636 60.949 206.232C61.0605 205.756 60.7446 205.279 60.2613 205.169V205.188ZM44.1272 51.962C43.7555 51.6503 43.1792 51.687 42.8447 52.0536C41.6737 53.4101 40.5212 54.7665 39.3874 56.1047C39.0714 56.4896 39.1271 57.0395 39.4989 57.3695C39.6662 57.4978 39.8707 57.5711 40.0751 57.5711C40.3353 57.5711 40.5956 57.4611 40.7814 57.2412C41.8967 55.903 43.0491 54.5649 44.2202 53.2084C44.5361 52.8418 44.499 52.2736 44.1272 51.9436V51.962ZM66.2279 28.9937C65.8747 28.6454 65.2985 28.6271 64.9454 28.9754C63.6442 30.2219 62.3803 31.45 61.1163 32.6782C60.7631 33.0264 60.7631 33.5947 61.1163 33.943C61.2836 34.1263 61.5252 34.1996 61.7483 34.1996C61.9713 34.1996 62.213 34.108 62.3803 33.943C63.6256 32.7148 64.8896 31.4867 66.1907 30.2585C66.5439 29.9102 66.5625 29.342 66.2093 28.9937H66.2279ZM50.0195 202.493C48.3094 201.943 46.6365 201.356 45.0194 200.751C44.5547 200.568 44.0343 200.806 43.8484 201.265C43.6625 201.723 43.9042 202.236 44.3689 202.42C46.0046 203.043 47.7146 203.648 49.4619 204.198C49.5548 204.234 49.6477 204.234 49.7407 204.234C50.131 204.234 50.4842 203.996 50.5957 203.611C50.7444 203.134 50.4842 202.64 50.0195 202.493ZM54.9638 41.4952C56.172 40.2304 57.3988 38.9656 58.6627 37.7007C59.0159 37.3525 58.9973 36.7842 58.6627 36.4359C58.3096 36.0877 57.7334 36.106 57.3802 36.4359C56.1162 37.7191 54.8709 38.9839 53.6627 40.2487C53.3281 40.6153 53.3281 41.1652 53.6998 41.5135C53.8671 41.6785 54.0902 41.7518 54.3132 41.7518C54.5549 41.7518 54.7965 41.6602 54.9638 41.4769V41.4952ZM0.910977 142.424C1.41284 142.424 1.80318 142.039 1.82177 141.544C1.82177 139.821 1.91471 138.079 2.04482 136.338C2.082 135.843 1.71025 135.421 1.20838 135.385C0.725101 135.366 0.278998 135.715 0.241822 136.209C0.0931213 137.988 0.0187707 139.784 0.000183105 141.544C0.000183105 142.039 0.390523 142.442 0.892389 142.442L0.910977 142.424ZM2.5281 151.919C2.26787 150.232 2.082 148.491 1.97047 146.75C1.9333 146.255 1.50578 145.888 1.00392 145.925C0.502049 145.961 0.130297 146.383 0.167472 146.878C0.278998 148.656 0.483461 150.452 0.743688 152.194C0.818039 152.634 1.18979 152.964 1.63589 152.964C1.67307 152.964 1.72883 152.964 1.76601 152.964C2.26787 152.89 2.60245 152.432 2.5281 151.955V151.919ZM1.61731 131.902C1.61731 131.902 1.71025 131.902 1.74742 131.902C2.19352 131.902 2.58386 131.572 2.63963 131.132C2.88127 129.445 3.17867 127.704 3.53183 125.981C3.62477 125.504 3.30878 125.028 2.8255 124.936C2.34222 124.844 1.85895 125.156 1.76601 125.633C1.41284 127.392 1.09685 129.152 0.855214 130.875C0.780864 131.37 1.13403 131.81 1.61731 131.883V131.902ZM3.62477 121.545C3.62477 121.545 3.77347 121.582 3.84782 121.582C4.25675 121.582 4.60992 121.307 4.72144 120.922C5.14896 119.272 5.65082 117.567 6.18986 115.899C6.33857 115.423 6.07834 114.928 5.59506 114.781C5.11178 114.634 4.60992 114.891 4.46121 115.368C3.92217 117.072 3.42031 118.795 2.9742 120.482C2.84409 120.958 3.14149 121.453 3.62477 121.563V121.545ZM27.1381 74.362C27.4169 74.362 27.7143 74.2336 27.8816 73.977C28.8854 72.5656 29.9077 71.1358 30.9672 69.6877C31.2646 69.2844 31.1716 68.7345 30.7627 68.4412C30.3538 68.1479 29.7962 68.2395 29.4988 68.6428C28.4207 70.0909 27.3984 71.5207 26.3946 72.9688C26.1158 73.3721 26.2087 73.922 26.6177 74.2153C26.7664 74.3253 26.9522 74.3803 27.1381 74.3803V74.362ZM11.8777 175.987C11.5989 175.584 11.0412 175.474 10.6137 175.749C10.2048 176.024 10.0933 176.573 10.3721 176.995C11.3758 178.461 12.4725 179.91 13.6063 181.284C13.7922 181.504 14.0524 181.614 14.3127 181.614C14.5171 181.614 14.7216 181.541 14.8889 181.413C15.2792 181.101 15.335 180.533 15.019 180.166C13.9037 178.828 12.8442 177.417 11.8777 176.005V175.987ZM10.7438 101.675C10.8739 101.73 10.9855 101.748 11.1156 101.748C11.4688 101.748 11.7847 101.546 11.9334 101.235C12.6584 99.6765 13.4205 98.1001 14.2197 96.5053C14.4428 96.0654 14.2569 95.5338 13.8108 95.3139C13.3647 95.0939 12.8256 95.2772 12.6026 95.7171C11.7847 97.3302 11.0041 98.925 10.2791 100.501C10.0747 100.941 10.2791 101.473 10.7252 101.675H10.7438ZM3.53183 157.033C3.42031 156.556 2.93703 156.245 2.45375 156.373C1.97047 156.483 1.67307 156.96 1.7846 157.436C2.19352 159.178 2.69539 160.919 3.25302 162.587C3.38313 162.954 3.7363 163.192 4.10805 163.192C4.20099 163.192 4.29393 163.192 4.38686 163.155C4.85155 163.009 5.11178 162.496 4.96308 162.037C4.42404 160.406 3.94076 158.719 3.53183 157.033ZM9.33117 104.882C8.86648 104.699 8.34603 104.919 8.16015 105.359C7.47241 107.027 6.82184 108.677 6.20845 110.308C6.04116 110.767 6.2828 111.28 6.74749 111.445C6.84043 111.481 6.95196 111.5 7.06348 111.5C7.43524 111.5 7.7884 111.28 7.91851 110.913C8.51332 109.3 9.1453 107.669 9.83304 106.019C10.0189 105.561 9.79587 105.047 9.34976 104.864L9.33117 104.882ZM6.82184 166.895C6.61738 166.437 6.09693 166.235 5.63224 166.437C5.16754 166.638 4.96308 167.151 5.16754 167.61C5.89246 169.241 6.69173 170.854 7.56535 172.431C7.73264 172.724 8.03004 172.889 8.36462 172.889C8.51332 172.889 8.66202 172.852 8.79213 172.779C9.23824 172.541 9.38694 172.009 9.1453 171.569C8.30886 170.048 7.52817 168.49 6.82184 166.913V166.895ZM18.9782 86.0569C18.5506 85.8003 17.993 85.9469 17.7328 86.3868C16.822 87.9449 15.9484 89.4847 15.0933 91.0061C14.8517 91.4461 15.019 91.9777 15.4651 92.216C15.5952 92.2893 15.7439 92.326 15.8926 92.326C16.2086 92.326 16.5246 92.161 16.6919 91.8677C17.5283 90.3462 18.4019 88.8248 19.2941 87.285C19.5544 86.8634 19.4057 86.3135 18.9596 86.0752L18.9782 86.0569ZM193.181 178.022C191.62 178.883 190.059 179.708 188.497 180.533C188.051 180.771 187.884 181.303 188.126 181.743C188.293 182.036 188.609 182.219 188.925 182.219C189.074 182.219 189.222 182.183 189.352 182.109C190.914 181.284 192.494 180.441 194.074 179.58C194.501 179.341 194.668 178.791 194.427 178.37C194.185 177.948 193.628 177.783 193.2 178.022H193.181ZM174.148 187.535C172.512 188.268 170.895 188.983 169.278 189.68C168.813 189.881 168.609 190.395 168.813 190.853C168.962 191.183 169.296 191.385 169.65 191.385C169.761 191.385 169.891 191.366 170.003 191.311C171.638 190.615 173.274 189.881 174.91 189.148C175.356 188.947 175.56 188.415 175.356 187.975C175.151 187.535 174.612 187.333 174.166 187.535H174.148ZM183.758 182.952C182.159 183.759 180.56 184.529 178.98 185.28C178.534 185.5 178.349 186.032 178.553 186.472C178.702 186.784 179.036 186.967 179.371 186.967C179.501 186.967 179.631 186.93 179.761 186.875C181.36 186.105 182.958 185.335 184.575 184.529C185.021 184.309 185.189 183.777 184.966 183.337C184.743 182.897 184.204 182.714 183.758 182.952ZM144.315 198.882C142.604 199.413 140.894 199.908 139.203 200.385C138.72 200.513 138.441 201.008 138.59 201.485C138.701 201.87 139.073 202.126 139.463 202.126C139.538 202.126 139.63 202.126 139.705 202.09C141.415 201.613 143.125 201.1 144.854 200.568C145.337 200.422 145.597 199.927 145.448 199.45C145.3 198.973 144.798 198.717 144.315 198.863V198.882ZM164.371 191.733C162.716 192.411 161.062 193.053 159.408 193.676C158.943 193.859 158.701 194.372 158.887 194.831C159.017 195.179 159.371 195.399 159.724 195.399C159.835 195.399 159.947 195.381 160.058 195.344C161.713 194.721 163.385 194.061 165.04 193.383C165.504 193.199 165.728 192.668 165.523 192.228C165.337 191.77 164.798 191.55 164.352 191.751L164.371 191.733ZM154.426 195.527C152.735 196.132 151.062 196.7 149.389 197.269C148.924 197.434 148.664 197.929 148.813 198.405C148.943 198.772 149.296 199.01 149.668 199.01C149.761 199.01 149.854 199.01 149.965 198.955C151.657 198.387 153.348 197.819 155.04 197.214C155.504 197.049 155.746 196.535 155.579 196.077C155.411 195.619 154.891 195.381 154.426 195.546V195.527ZM202.419 172.742C200.877 173.659 199.353 174.539 197.828 175.419C197.401 175.657 197.252 176.207 197.494 176.628C197.661 176.922 197.958 177.068 198.274 177.068C198.423 177.068 198.59 177.032 198.721 176.94C200.263 176.06 201.806 175.162 203.349 174.245C203.776 173.989 203.906 173.439 203.665 173.017C203.405 172.596 202.847 172.467 202.419 172.706V172.742ZM220.301 161.249C218.832 162.257 217.364 163.247 215.896 164.237C215.487 164.512 215.375 165.062 215.654 165.483C215.821 165.74 216.119 165.868 216.397 165.868C216.565 165.868 216.751 165.813 216.899 165.722C218.368 164.732 219.855 163.742 221.323 162.715C221.732 162.441 221.825 161.872 221.546 161.469C221.267 161.066 220.691 160.974 220.282 161.249H220.301ZM230.208 155.255C229.911 154.87 229.334 154.778 228.944 155.072C227.513 156.135 226.082 157.161 224.65 158.188C224.241 158.481 224.148 159.031 224.446 159.434C224.632 159.673 224.892 159.801 225.171 159.801C225.357 159.801 225.543 159.746 225.71 159.636C227.141 158.609 228.591 157.565 230.022 156.501C230.412 156.208 230.505 155.64 230.208 155.255ZM211.453 167.151C209.947 168.123 208.46 169.058 206.955 169.993C206.527 170.249 206.397 170.799 206.676 171.221C206.843 171.496 207.141 171.642 207.438 171.642C207.605 171.642 207.773 171.606 207.921 171.514C209.427 170.579 210.933 169.626 212.438 168.655C212.866 168.38 212.977 167.83 212.698 167.426C212.42 167.023 211.862 166.895 211.453 167.17V167.151ZM81.3582 207.809C79.5738 207.735 77.808 207.625 76.0422 207.479C75.5217 207.406 75.1128 207.809 75.0756 208.285C75.0384 208.78 75.4102 209.202 75.8935 209.239C77.6593 209.385 79.4623 209.495 81.2653 209.569H81.3025C81.7858 209.569 82.1761 209.202 82.2133 208.725C82.2319 208.23 81.8415 207.809 81.3582 207.79V207.809ZM90.0201 9.08667C90.4104 8.77505 90.4476 8.2068 90.1316 7.82186C89.8156 7.45525 89.2394 7.40026 88.8491 7.71188C87.4736 8.8667 86.1167 10.0032 84.7784 11.1397C84.4066 11.4697 84.3508 12.0196 84.6854 12.4045C84.8713 12.6061 85.1129 12.7161 85.3732 12.7161C85.5776 12.7161 85.8007 12.6428 85.968 12.4962C87.3063 11.3597 88.6632 10.2232 90.0387 9.06834L90.0201 9.08667ZM80.7263 14.6225C79.3694 15.7957 78.0311 16.9688 76.7299 18.142C76.3582 18.4719 76.321 19.0402 76.6556 19.4068C76.8414 19.6084 77.0831 19.7001 77.3247 19.7001C77.5478 19.7001 77.7522 19.6268 77.9381 19.4801C79.2392 18.307 80.5776 17.1521 81.9345 15.979C82.3062 15.649 82.3434 15.0991 82.0088 14.7142C81.6742 14.3476 81.098 14.3109 80.7263 14.6408V14.6225ZM134.054 201.76C132.326 202.2 130.597 202.621 128.887 203.024C128.404 203.134 128.106 203.611 128.218 204.088C128.311 204.491 128.682 204.784 129.091 204.784C129.166 204.784 129.221 204.784 129.296 204.766C131.024 204.363 132.772 203.941 134.519 203.501C135.002 203.373 135.3 202.896 135.169 202.42C135.039 201.943 134.537 201.65 134.073 201.778L134.054 201.76ZM91.9904 207.882C90.6149 207.919 89.258 207.937 87.9197 207.937H86.6743C86.2096 207.864 85.7635 208.322 85.7635 208.817C85.7635 209.312 86.1538 209.715 86.6557 209.715H87.9197C89.2766 209.715 90.6521 209.715 92.0461 209.66C92.548 209.66 92.9383 209.239 92.9197 208.744C92.9197 208.249 92.5108 207.882 91.9904 207.882ZM70.7633 206.929C68.9789 206.709 67.2316 206.452 65.503 206.177C65.0197 206.104 64.5364 206.416 64.4621 206.911C64.3691 207.405 64.7037 207.864 65.2056 207.937C66.9528 208.23 68.7372 208.487 70.5402 208.707C70.5774 208.707 70.6146 208.707 70.6518 208.707C71.0979 208.707 71.4882 208.377 71.544 207.919C71.5997 207.424 71.2466 206.984 70.7633 206.929ZM72.7708 21.6981C71.451 22.9079 70.1313 24.1178 68.8488 25.3093C68.4956 25.6575 68.477 26.2075 68.8116 26.5741C68.9975 26.7574 69.2205 26.849 69.4622 26.849C69.6852 26.849 69.9083 26.7757 70.0755 26.6107C71.3581 25.4192 72.6592 24.2094 73.979 23.0179C74.3507 22.688 74.3693 22.1197 74.0347 21.7531C73.7001 21.3865 73.1239 21.3682 72.7522 21.6981H72.7708ZM113.199 205.994C111.433 206.251 109.667 206.489 107.92 206.709C107.418 206.764 107.065 207.204 107.139 207.699C107.195 208.157 107.585 208.487 108.031 208.487C108.069 208.487 108.106 208.487 108.143 208.487C109.909 208.285 111.675 208.047 113.478 207.772C113.98 207.699 114.314 207.241 114.24 206.764C114.165 206.269 113.719 205.939 113.217 206.012L113.199 205.994ZM123.682 204.143C121.935 204.491 120.188 204.839 118.441 205.133C117.957 205.224 117.623 205.682 117.716 206.159C117.79 206.599 118.18 206.892 118.608 206.892C118.664 206.892 118.719 206.892 118.775 206.892C120.522 206.581 122.288 206.251 124.054 205.884C124.537 205.792 124.853 205.316 124.76 204.821C124.667 204.344 124.184 204.033 123.701 204.124L123.682 204.143ZM98.3845 1.09453C98.0685 0.70959 97.4923 0.654592 97.1206 0.966212C95.7265 2.08438 94.3324 3.20255 92.9755 4.32072C92.5852 4.63234 92.5294 5.20058 92.864 5.58553C93.0499 5.80549 93.3101 5.91548 93.5703 5.91548C93.7748 5.91548 93.9792 5.84215 94.1465 5.71384C95.5034 4.59567 96.8789 3.49584 98.273 2.37767C98.6633 2.06605 98.7191 1.4978 98.4031 1.13119L98.3845 1.09453ZM102.604 207.259C100.819 207.424 99.0537 207.552 97.2878 207.644C96.786 207.68 96.4142 208.102 96.4328 208.579C96.47 209.055 96.8603 209.422 97.325 209.422H97.3808C99.1466 209.312 100.95 209.184 102.753 209.019C103.254 208.982 103.608 208.542 103.57 208.047C103.533 207.552 103.087 207.222 102.585 207.241L102.604 207.259Z" fill="#F85E9F"/>
</svg>
