<svg width="231" height="197" viewBox="0 0 231 197" fill="none" xmlns="http://www.w3.org/2000/svg">
<path d="M40.577 187.415C40.4283 187.725 40.0937 187.897 39.7591 187.897C39.629 187.897 39.4989 187.879 39.3874 187.828C37.7331 187.122 36.116 186.382 34.536 185.608C34.0899 185.384 33.9226 184.885 34.1642 184.473C34.4059 184.06 34.9449 183.905 35.391 184.128C36.9152 184.886 38.5138 185.625 40.1309 186.314C40.577 186.503 40.7814 187.002 40.577 187.415ZM37.4171 57.335C37.7331 56.9737 37.6587 56.4403 37.2684 56.165C36.878 55.8725 36.3018 55.9413 36.0044 56.3026C34.8706 57.6103 33.7739 58.918 32.7144 60.2257C32.417 60.587 32.4914 61.1204 32.8817 61.3957C33.049 61.5161 33.2349 61.5677 33.4207 61.5677C33.6996 61.5677 33.9598 61.4473 34.1457 61.2408C35.2052 59.9504 36.3018 58.6427 37.4171 57.3522V57.335ZM30.8185 181.668C29.3129 180.79 27.8445 179.861 26.4504 178.915C26.0415 178.64 25.4838 178.726 25.1864 179.087C24.889 179.465 24.982 179.982 25.3723 180.257C26.8035 181.238 28.3091 182.184 29.8519 183.079C30.0006 183.165 30.1679 183.199 30.3352 183.199C30.6326 183.199 30.93 183.062 31.0973 182.804C31.3575 182.408 31.246 181.892 30.8185 181.651V181.668ZM24.6288 72.1496C24.2199 71.8915 23.6437 72.012 23.3834 72.3905C22.3797 73.8015 21.4131 75.1952 20.4838 76.5889C20.2235 76.9846 20.3536 77.5008 20.7812 77.7417C20.9299 77.8277 21.0971 77.8621 21.2644 77.8621C21.5618 77.8621 21.8592 77.7245 22.0265 77.4664C22.9559 76.0899 23.9039 74.6962 24.889 73.3025C25.1678 72.9239 25.0563 72.3905 24.6288 72.1496ZM18.5135 172.514C18.1603 172.187 17.5841 172.17 17.2309 172.514C16.8778 172.841 16.8592 173.374 17.2309 173.701C18.4763 174.889 19.796 176.041 21.1715 177.143C21.3388 177.28 21.5618 177.349 21.7663 177.349C22.0265 177.349 22.2682 177.246 22.454 177.057C22.7886 176.712 22.7329 176.179 22.3611 175.869C21.0228 174.803 19.7402 173.667 18.5321 172.514H18.5135ZM49.9823 41.1955C48.7555 42.4343 47.5659 43.656 46.3763 44.8776C46.0417 45.2217 46.0789 45.7551 46.4507 46.0648C46.618 46.2025 46.841 46.2713 47.0455 46.2713C47.2871 46.2713 47.5473 46.1681 47.7146 45.996C48.8857 44.7744 50.0753 43.5527 51.2835 42.3311C51.618 41.9869 51.5994 41.4536 51.2277 41.1438C50.8559 40.8341 50.2797 40.8513 49.9451 41.1955H49.9823ZM60.2613 192.37C58.514 192.026 56.7854 191.63 55.0939 191.217C54.6106 191.08 54.1088 191.372 53.9787 191.802C53.8486 192.25 54.146 192.714 54.6292 192.818C56.3393 193.248 58.1051 193.626 59.8709 193.988C59.9267 193.988 60.0011 194.005 60.0568 194.005C60.4657 194.005 60.8561 193.73 60.949 193.351C61.0605 192.904 60.7446 192.456 60.2613 192.353V192.37ZM44.1272 48.5426C43.7555 48.2501 43.1793 48.2845 42.8447 48.6286C41.6737 49.9019 40.5212 51.1751 39.3874 52.4312C39.0714 52.7925 39.1271 53.3087 39.4989 53.6184C39.6662 53.7389 39.8707 53.8077 40.0751 53.8077C40.3353 53.8077 40.5956 53.7045 40.7814 53.498C41.8967 52.2419 43.0491 50.9859 44.2202 49.7126C44.5361 49.3685 44.499 48.8351 44.1272 48.5254V48.5426ZM66.2279 26.983C65.8747 26.6561 65.2985 26.6389 64.9454 26.9658C63.6442 28.1359 62.3803 29.2887 61.1163 30.4415C60.7631 30.7684 60.7631 31.3018 61.1163 31.6287C61.2836 31.8008 61.5252 31.8696 61.7483 31.8696C61.9713 31.8696 62.213 31.7836 62.3803 31.6287C63.6256 30.4759 64.8896 29.3231 66.1907 28.1703C66.5439 27.8434 66.5625 27.3099 66.2093 26.983H66.2279ZM50.0195 189.841C48.3094 189.325 46.6365 188.774 45.0194 188.206C44.5547 188.034 44.0343 188.258 43.8484 188.688C43.6625 189.118 43.9042 189.6 44.3689 189.772C46.0046 190.357 47.7146 190.925 49.4619 191.441C49.5548 191.476 49.6477 191.476 49.7407 191.476C50.131 191.476 50.4842 191.252 50.5957 190.891C50.7444 190.443 50.4842 189.979 50.0195 189.841ZM54.9638 38.7177C56.172 37.5305 57.3988 36.3433 58.6627 35.156C59.0159 34.8291 58.9973 34.2957 58.6627 33.9688C58.3096 33.6419 57.7334 33.6591 57.3802 33.9688C56.1162 35.1732 54.8709 36.3605 53.6627 37.5477C53.3281 37.8918 53.3281 38.408 53.6998 38.735C53.8671 38.8898 54.0902 38.9586 54.3132 38.9586C54.5549 38.9586 54.7965 38.8726 54.9638 38.7005V38.7177ZM0.910977 133.456C1.41284 133.456 1.80318 133.094 1.82177 132.63C1.82177 131.012 1.91471 129.378 2.04482 127.743C2.082 127.279 1.71025 126.883 1.20838 126.849C0.725101 126.831 0.278998 127.158 0.241822 127.623C0.0931213 129.292 0.0187707 130.978 0.000183105 132.63C0.000183105 133.094 0.390523 133.473 0.892389 133.473L0.910977 133.456ZM2.5281 142.369C2.26787 140.786 2.082 139.151 1.97047 137.516C1.9333 137.052 1.50578 136.708 1.00392 136.742C0.502049 136.777 0.130297 137.172 0.167472 137.637C0.278998 139.306 0.483461 140.992 0.743688 142.627C0.818039 143.04 1.18979 143.349 1.63589 143.349C1.67307 143.349 1.72883 143.349 1.76601 143.349C2.26787 143.281 2.60245 142.85 2.5281 142.403V142.369ZM1.61731 123.579C1.61731 123.579 1.71025 123.579 1.74742 123.579C2.19352 123.579 2.58386 123.27 2.63963 122.857C2.88127 121.274 3.17867 119.639 3.53183 118.022C3.62477 117.574 3.30878 117.127 2.8255 117.041C2.34222 116.955 1.85895 117.247 1.76601 117.695C1.41284 119.347 1.09685 120.998 0.855214 122.616C0.780864 123.08 1.13403 123.493 1.61731 123.562V123.579ZM3.62477 113.858C3.62477 113.858 3.77347 113.892 3.84782 113.892C4.25675 113.892 4.60992 113.634 4.72144 113.273C5.14896 111.724 5.65082 110.124 6.18986 108.558C6.33857 108.111 6.07834 107.646 5.59506 107.509C5.11178 107.371 4.60992 107.612 4.46121 108.059C3.92217 109.659 3.42031 111.277 2.9742 112.86C2.84409 113.307 3.14149 113.772 3.62477 113.875V113.858ZM27.1381 69.5687C27.4169 69.5687 27.7143 69.4482 27.8816 69.2074C28.8854 67.8825 29.9077 66.5404 30.9672 65.1811C31.2646 64.8025 31.1716 64.2863 30.7627 64.011C30.3538 63.7357 29.7962 63.8218 29.4988 64.2003C28.4207 65.5596 27.3984 66.9017 26.3946 68.261C26.1158 68.6395 26.2087 69.1557 26.6177 69.431C26.7664 69.5343 26.9522 69.5859 27.1381 69.5859V69.5687ZM11.8777 164.961C11.5989 164.582 11.0412 164.479 10.6137 164.737C10.2048 164.995 10.0933 165.511 10.3721 165.907C11.3758 167.283 12.4725 168.643 13.6063 169.933C13.7922 170.14 14.0524 170.243 14.3127 170.243C14.5171 170.243 14.7216 170.174 14.8889 170.054C15.2792 169.761 15.335 169.228 15.019 168.884C13.9037 167.628 12.8442 166.303 11.8777 164.978V164.961ZM10.7438 95.2061C10.8739 95.2577 10.9855 95.2749 11.1156 95.2749C11.4688 95.2749 11.7847 95.0857 11.9334 94.7932C12.6584 93.3306 13.4205 91.8509 14.2197 90.3539C14.4428 89.941 14.2569 89.442 13.8108 89.2355C13.3647 89.0291 12.8256 89.2011 12.6026 89.6141C11.7847 91.1282 11.0041 92.6252 10.2791 94.1049C10.0747 94.5179 10.2791 95.0168 10.7252 95.2061H10.7438ZM3.53183 147.169C3.42031 146.722 2.93703 146.429 2.45375 146.55C1.97047 146.653 1.67307 147.1 1.7846 147.548C2.19352 149.182 2.69539 150.817 3.25302 152.383C3.38313 152.727 3.7363 152.951 4.10805 152.951C4.20099 152.951 4.29393 152.951 4.38686 152.916C4.85155 152.778 5.11178 152.297 4.96308 151.867C4.42404 150.335 3.94076 148.752 3.53183 147.169ZM9.33117 98.2172C8.86648 98.0452 8.34603 98.2516 8.16015 98.6646C7.47241 100.23 6.82184 101.779 6.20845 103.31C6.04116 103.74 6.2828 104.222 6.74749 104.377C6.84043 104.411 6.95196 104.429 7.06348 104.429C7.43524 104.429 7.7884 104.222 7.91851 103.878C8.51332 102.364 9.1453 100.833 9.83304 99.284C10.0189 98.8539 9.79587 98.3721 9.34976 98.2L9.33117 98.2172ZM6.82184 156.426C6.61738 155.996 6.09693 155.807 5.63224 155.996C5.16754 156.185 4.96308 156.667 5.16754 157.097C5.89246 158.629 6.69173 160.143 7.56535 161.623C7.73264 161.898 8.03004 162.053 8.36462 162.053C8.51332 162.053 8.66202 162.018 8.79213 161.949C9.23824 161.726 9.38694 161.227 9.1453 160.814C8.30885 159.386 7.52817 157.923 6.82184 156.443V156.426ZM18.9782 80.5463C18.5506 80.3054 17.993 80.4431 17.7328 80.856C16.822 82.3186 15.9484 83.7639 15.0933 85.192C14.8517 85.605 15.019 86.104 15.4651 86.3277C15.5952 86.3965 15.7439 86.4309 15.8926 86.4309C16.2086 86.4309 16.5246 86.276 16.6919 86.0007C17.5283 84.5726 18.4019 83.1445 19.2941 81.6992C19.5544 81.3034 19.4057 80.7872 18.9596 80.5635L18.9782 80.5463ZM193.181 166.87C191.62 167.679 190.059 168.453 188.497 169.228C188.051 169.451 187.884 169.95 188.126 170.363C188.293 170.639 188.609 170.811 188.925 170.811C189.074 170.811 189.222 170.776 189.352 170.707C190.914 169.933 192.494 169.142 194.074 168.333C194.501 168.109 194.668 167.593 194.427 167.197C194.185 166.802 193.628 166.647 193.2 166.87H193.181ZM174.148 175.801C172.512 176.489 170.895 177.16 169.278 177.814C168.813 178.003 168.609 178.485 168.813 178.915C168.962 179.225 169.296 179.414 169.65 179.414C169.761 179.414 169.891 179.397 170.003 179.345C171.638 178.691 173.274 178.003 174.91 177.315C175.356 177.125 175.56 176.626 175.356 176.214C175.151 175.801 174.612 175.611 174.166 175.801H174.148ZM183.758 171.499C182.159 172.256 180.56 172.979 178.98 173.684C178.534 173.891 178.349 174.39 178.553 174.803C178.702 175.095 179.036 175.267 179.371 175.267C179.501 175.267 179.631 175.233 179.761 175.181C181.36 174.458 182.958 173.736 184.575 172.979C185.021 172.772 185.189 172.273 184.966 171.86C184.743 171.447 184.204 171.275 183.758 171.499ZM144.315 186.451C142.604 186.95 140.894 187.415 139.203 187.862C138.72 187.983 138.441 188.447 138.59 188.895C138.701 189.256 139.073 189.497 139.463 189.497C139.538 189.497 139.63 189.497 139.705 189.462C141.415 189.015 143.125 188.533 144.854 188.034C145.337 187.897 145.597 187.432 145.448 186.985C145.3 186.537 144.798 186.296 144.315 186.434V186.451ZM164.371 179.741C162.716 180.377 161.062 180.98 159.408 181.565C158.943 181.737 158.701 182.219 158.887 182.649C159.017 182.976 159.371 183.182 159.724 183.182C159.835 183.182 159.947 183.165 160.058 183.13C161.713 182.545 163.385 181.926 165.04 181.289C165.504 181.117 165.728 180.618 165.523 180.205C165.337 179.775 164.798 179.569 164.352 179.758L164.371 179.741ZM154.426 183.303C152.735 183.87 151.062 184.404 149.389 184.937C148.924 185.092 148.664 185.557 148.813 186.004C148.943 186.348 149.296 186.572 149.668 186.572C149.761 186.572 149.854 186.572 149.965 186.52C151.657 185.987 153.348 185.453 155.04 184.886C155.504 184.731 155.746 184.249 155.579 183.819C155.411 183.389 154.891 183.165 154.426 183.32V183.303ZM202.419 161.915C200.877 162.775 199.353 163.601 197.828 164.427C197.401 164.651 197.252 165.167 197.494 165.563C197.661 165.838 197.958 165.976 198.274 165.976C198.423 165.976 198.59 165.941 198.721 165.855C200.263 165.029 201.806 164.186 203.349 163.326C203.776 163.085 203.906 162.569 203.665 162.173C203.405 161.777 202.847 161.657 202.419 161.881V161.915ZM220.301 151.127C218.832 152.073 217.364 153.002 215.896 153.931C215.487 154.189 215.375 154.706 215.654 155.101C215.821 155.342 216.119 155.463 216.397 155.463C216.565 155.463 216.751 155.411 216.899 155.325C218.368 154.396 219.855 153.467 221.323 152.503C221.732 152.245 221.825 151.712 221.546 151.333C221.267 150.955 220.691 150.869 220.282 151.127H220.301ZM230.208 145.5C229.911 145.139 229.334 145.053 228.944 145.328C227.513 146.326 226.082 147.29 224.65 148.253C224.241 148.529 224.148 149.045 224.446 149.423C224.632 149.647 224.892 149.767 225.171 149.767C225.357 149.767 225.542 149.716 225.71 149.613C227.141 148.649 228.591 147.668 230.022 146.67C230.412 146.395 230.505 145.862 230.208 145.5ZM211.453 156.667C209.947 157.579 208.46 158.457 206.955 159.334C206.527 159.575 206.397 160.091 206.676 160.487C206.843 160.745 207.141 160.883 207.438 160.883C207.605 160.883 207.773 160.848 207.921 160.762C209.427 159.885 210.933 158.99 212.438 158.078C212.866 157.82 212.977 157.304 212.698 156.925C212.42 156.547 211.862 156.426 211.453 156.684V156.667ZM81.3582 194.831C79.5738 194.762 77.808 194.659 76.0422 194.521C75.5217 194.452 75.1128 194.831 75.0756 195.278C75.0384 195.743 75.4102 196.138 75.8935 196.173C77.6593 196.311 79.4623 196.414 81.2653 196.483H81.3025C81.7858 196.483 82.1761 196.138 82.2133 195.691C82.2319 195.227 81.8415 194.831 81.3582 194.814V194.831ZM90.0201 8.29696C90.4104 8.00445 90.4476 7.47106 90.1316 7.10972C89.8156 6.7656 89.2394 6.71397 88.8491 7.00648C87.4736 8.09048 86.1167 9.15728 84.7784 10.2241C84.4066 10.5338 84.3508 11.05 84.6854 11.4113C84.8713 11.6006 85.1129 11.7038 85.3732 11.7038C85.5776 11.7038 85.8007 11.635 85.968 11.4973C87.3063 10.4305 88.6632 9.36375 90.0387 8.27975L90.0201 8.29696ZM80.7263 13.4933C79.3694 14.5945 78.0311 15.6957 76.7299 16.7969C76.3582 17.1066 76.321 17.64 76.6556 17.9841C76.8414 18.1734 77.0831 18.2594 77.3247 18.2594C77.5478 18.2594 77.7522 18.1906 77.9381 18.0529C79.2393 16.9517 80.5776 15.8677 81.9345 14.7665C82.3062 14.4568 82.3434 13.9406 82.0088 13.5793C81.6742 13.2352 81.098 13.2008 80.7263 13.5105V13.4933ZM134.054 189.153C132.326 189.566 130.597 189.961 128.887 190.34C128.404 190.443 128.106 190.891 128.218 191.338C128.311 191.716 128.682 191.992 129.091 191.992C129.166 191.992 129.221 191.992 129.296 191.975C131.024 191.596 132.772 191.2 134.519 190.787C135.002 190.667 135.3 190.219 135.169 189.772C135.039 189.325 134.537 189.049 134.073 189.17L134.054 189.153ZM91.9904 194.9C90.6149 194.934 89.258 194.951 87.9197 194.951H86.6743C86.2096 194.882 85.7635 195.313 85.7635 195.777C85.7635 196.242 86.1539 196.62 86.6557 196.62H87.9197C89.2766 196.62 90.6521 196.62 92.0461 196.569C92.548 196.569 92.9383 196.173 92.9197 195.708C92.9197 195.244 92.5108 194.9 91.9904 194.9ZM70.7633 194.005C68.9789 193.798 67.2316 193.557 65.503 193.299C65.0197 193.231 64.5364 193.523 64.4621 193.988C64.3691 194.452 64.7037 194.882 65.2056 194.951C66.9528 195.227 68.7372 195.467 70.5402 195.674C70.5774 195.674 70.6146 195.674 70.6518 195.674C71.0979 195.674 71.4882 195.364 71.544 194.934C71.5997 194.469 71.2466 194.056 70.7633 194.005ZM72.7708 20.1349C71.451 21.2705 70.1313 22.4061 68.8488 23.5246C68.4956 23.8515 68.477 24.3677 68.8116 24.7118C68.9975 24.8839 69.2205 24.9699 69.4622 24.9699C69.6852 24.9699 69.9083 24.9011 70.0755 24.7462C71.3581 23.6278 72.6592 22.4922 73.979 21.3738C74.3507 21.0641 74.3693 20.5307 74.0347 20.1865C73.7001 19.8424 73.1239 19.8252 72.7522 20.1349H72.7708ZM113.199 193.127C111.433 193.368 109.667 193.592 107.92 193.798C107.418 193.85 107.065 194.263 107.139 194.728C107.195 195.158 107.585 195.467 108.031 195.467C108.069 195.467 108.106 195.467 108.143 195.467C109.909 195.278 111.675 195.054 113.478 194.796C113.98 194.728 114.314 194.297 114.24 193.85C114.165 193.385 113.719 193.076 113.217 193.145L113.199 193.127ZM123.682 191.389C121.935 191.716 120.188 192.043 118.441 192.319C117.957 192.405 117.623 192.835 117.716 193.282C117.79 193.695 118.18 193.97 118.608 193.97C118.664 193.97 118.719 193.97 118.775 193.97C120.522 193.678 122.288 193.368 124.054 193.024C124.537 192.938 124.853 192.491 124.76 192.026C124.667 191.579 124.184 191.286 123.701 191.372L123.682 191.389ZM98.3845 0.795003C98.0685 0.43367 97.4923 0.382045 97.1206 0.674552C95.7265 1.72414 94.3324 2.77373 92.9755 3.82331C92.5852 4.11582 92.5294 4.64922 92.864 5.01055C93.0499 5.21702 93.3101 5.32026 93.5703 5.32026C93.7748 5.32026 93.9792 5.25144 94.1465 5.13099C95.5034 4.08141 96.8789 3.04903 98.273 1.99944C98.6633 1.70693 98.7191 1.17354 98.4031 0.82941L98.3845 0.795003ZM102.604 194.315C100.819 194.469 99.0537 194.59 97.2878 194.676C96.786 194.71 96.4142 195.106 96.4328 195.553C96.47 196.001 96.8603 196.345 97.325 196.345H97.3808C99.1466 196.242 100.95 196.121 102.753 195.966C103.254 195.932 103.608 195.519 103.57 195.054C103.533 194.59 103.087 194.28 102.585 194.297L102.604 194.315Z" fill="#F85E9F"/>
</svg>
