<svg width="20" height="15" viewBox="0 0 20 15" fill="none" xmlns="http://www.w3.org/2000/svg">
<path d="M10.6062 14.0156L6.6002 13.9408C5.30314 13.9147 4.00285 13.9668 2.73123 13.6965C0.796785 13.2926 0.659742 11.3125 0.516341 9.65153C0.31875 7.31643 0.395244 4.93895 0.768124 2.62334C0.978628 1.32404 1.80704 0.548743 3.08816 0.464375C7.41287 0.158193 11.7663 0.194479 16.0815 0.337324C16.5372 0.350419 16.9961 0.421991 17.4454 0.50346C19.6636 0.900806 19.7177 3.14474 19.8615 5.03371C20.0049 6.94217 19.9444 8.86043 19.6703 10.7559C19.4504 12.3253 19.0297 13.6414 17.2542 13.7684C15.0296 13.9346 12.8561 14.0683 10.6253 14.0257C10.6254 14.0156 10.6126 14.0156 10.6062 14.0156ZM8.25107 10.0424C9.92747 9.05876 11.5719 8.09153 13.2387 7.11451C11.5592 6.13089 9.91788 5.16366 8.25107 4.18664V10.0424Z" fill="#F95F9F"/>
</svg>
